<?xml version="1.0" encoding="UTF-8" standalone="no"?>
<!-- Created with Inkscape (http://www.inkscape.org/) -->

<svg
   xmlns:dc="http://purl.org/dc/elements/1.1/"
   xmlns:cc="http://creativecommons.org/ns#"
   xmlns:rdf="http://www.w3.org/1999/02/22-rdf-syntax-ns#"
   xmlns:svg="http://www.w3.org/2000/svg"
   xmlns="http://www.w3.org/2000/svg"
   xmlns:sodipodi="http://sodipodi.sourceforge.net/DTD/sodipodi-0.dtd"
   xmlns:inkscape="http://www.inkscape.org/namespaces/inkscape"
   width="744.09448819"
   height="1052.3622047"
   id="svg2"
   version="1.1"
   inkscape:version="0.47pre4 r22446"
   sodipodi:docname="drawing.svg">
  <defs
     id="defs4">
    <inkscape:perspective
       sodipodi:type="inkscape:persp3d"
       inkscape:vp_x="0 : 526.18109 : 1"
       inkscape:vp_y="0 : 1000 : 0"
       inkscape:vp_z="744.09448 : 526.18109 : 1"
       inkscape:persp3d-origin="372.04724 : 350.78739 : 1"
       id="perspective10" />
    <inkscape:perspective
       id="perspective2902"
       inkscape:persp3d-origin="0.5 : 0.33333333 : 1"
       inkscape:vp_z="1 : 0.5 : 1"
       inkscape:vp_y="0 : 1000 : 0"
       inkscape:vp_x="0 : 0.5 : 1"
       sodipodi:type="inkscape:persp3d" />
    <inkscape:perspective
       id="perspective3745"
       inkscape:persp3d-origin="0.5 : 0.33333333 : 1"
       inkscape:vp_z="1 : 0.5 : 1"
       inkscape:vp_y="0 : 1000 : 0"
       inkscape:vp_x="0 : 0.5 : 1"
       sodipodi:type="inkscape:persp3d" />
    <inkscape:perspective
       id="perspective3745-4"
       inkscape:persp3d-origin="0.5 : 0.33333333 : 1"
       inkscape:vp_z="1 : 0.5 : 1"
       inkscape:vp_y="0 : 1000 : 0"
       inkscape:vp_x="0 : 0.5 : 1"
       sodipodi:type="inkscape:persp3d" />
    <inkscape:perspective
       id="perspective3780"
       inkscape:persp3d-origin="0.5 : 0.33333333 : 1"
       inkscape:vp_z="1 : 0.5 : 1"
       inkscape:vp_y="0 : 1000 : 0"
       inkscape:vp_x="0 : 0.5 : 1"
       sodipodi:type="inkscape:persp3d" />
    <inkscape:perspective
       id="perspective3802"
       inkscape:persp3d-origin="0.5 : 0.33333333 : 1"
       inkscape:vp_z="1 : 0.5 : 1"
       inkscape:vp_y="0 : 1000 : 0"
       inkscape:vp_x="0 : 0.5 : 1"
       sodipodi:type="inkscape:persp3d" />
    <inkscape:perspective
       id="perspective3824"
       inkscape:persp3d-origin="0.5 : 0.33333333 : 1"
       inkscape:vp_z="1 : 0.5 : 1"
       inkscape:vp_y="0 : 1000 : 0"
       inkscape:vp_x="0 : 0.5 : 1"
       sodipodi:type="inkscape:persp3d" />
    <inkscape:perspective
       id="perspective3849"
       inkscape:persp3d-origin="0.5 : 0.33333333 : 1"
       inkscape:vp_z="1 : 0.5 : 1"
       inkscape:vp_y="0 : 1000 : 0"
       inkscape:vp_x="0 : 0.5 : 1"
       sodipodi:type="inkscape:persp3d" />
    <inkscape:perspective
       id="perspective3877"
       inkscape:persp3d-origin="0.5 : 0.33333333 : 1"
       inkscape:vp_z="1 : 0.5 : 1"
       inkscape:vp_y="0 : 1000 : 0"
       inkscape:vp_x="0 : 0.5 : 1"
       sodipodi:type="inkscape:persp3d" />
    <inkscape:perspective
       id="perspective3905"
       inkscape:persp3d-origin="0.5 : 0.33333333 : 1"
       inkscape:vp_z="1 : 0.5 : 1"
       inkscape:vp_y="0 : 1000 : 0"
       inkscape:vp_x="0 : 0.5 : 1"
       sodipodi:type="inkscape:persp3d" />
    <inkscape:perspective
       id="perspective3905-7"
       inkscape:persp3d-origin="0.5 : 0.33333333 : 1"
       inkscape:vp_z="1 : 0.5 : 1"
       inkscape:vp_y="0 : 1000 : 0"
       inkscape:vp_x="0 : 0.5 : 1"
       sodipodi:type="inkscape:persp3d" />
    <inkscape:perspective
       id="perspective3905-6"
       inkscape:persp3d-origin="0.5 : 0.33333333 : 1"
       inkscape:vp_z="1 : 0.5 : 1"
       inkscape:vp_y="0 : 1000 : 0"
       inkscape:vp_x="0 : 0.5 : 1"
       sodipodi:type="inkscape:persp3d" />
    <inkscape:perspective
       id="perspective3983"
       inkscape:persp3d-origin="0.5 : 0.33333333 : 1"
       inkscape:vp_z="1 : 0.5 : 1"
       inkscape:vp_y="0 : 1000 : 0"
       inkscape:vp_x="0 : 0.5 : 1"
       sodipodi:type="inkscape:persp3d" />
    <inkscape:perspective
       id="perspective3983-5"
       inkscape:persp3d-origin="0.5 : 0.33333333 : 1"
       inkscape:vp_z="1 : 0.5 : 1"
       inkscape:vp_y="0 : 1000 : 0"
       inkscape:vp_x="0 : 0.5 : 1"
       sodipodi:type="inkscape:persp3d" />
    <inkscape:perspective
       id="perspective4014"
       inkscape:persp3d-origin="0.5 : 0.33333333 : 1"
       inkscape:vp_z="1 : 0.5 : 1"
       inkscape:vp_y="0 : 1000 : 0"
       inkscape:vp_x="0 : 0.5 : 1"
       sodipodi:type="inkscape:persp3d" />
    <inkscape:perspective
       id="perspective4014-1"
       inkscape:persp3d-origin="0.5 : 0.33333333 : 1"
       inkscape:vp_z="1 : 0.5 : 1"
       inkscape:vp_y="0 : 1000 : 0"
       inkscape:vp_x="0 : 0.5 : 1"
       sodipodi:type="inkscape:persp3d" />
    <inkscape:perspective
       id="perspective4110"
       inkscape:persp3d-origin="0.5 : 0.33333333 : 1"
       inkscape:vp_z="1 : 0.5 : 1"
       inkscape:vp_y="0 : 1000 : 0"
       inkscape:vp_x="0 : 0.5 : 1"
       sodipodi:type="inkscape:persp3d" />
    <inkscape:perspective
       id="perspective4110-7"
       inkscape:persp3d-origin="0.5 : 0.33333333 : 1"
       inkscape:vp_z="1 : 0.5 : 1"
       inkscape:vp_y="0 : 1000 : 0"
       inkscape:vp_x="0 : 0.5 : 1"
       sodipodi:type="inkscape:persp3d" />
    <inkscape:perspective
       id="perspective4110-72"
       inkscape:persp3d-origin="0.5 : 0.33333333 : 1"
       inkscape:vp_z="1 : 0.5 : 1"
       inkscape:vp_y="0 : 1000 : 0"
       inkscape:vp_x="0 : 0.5 : 1"
       sodipodi:type="inkscape:persp3d" />
    <inkscape:perspective
       id="perspective4150"
       inkscape:persp3d-origin="0.5 : 0.33333333 : 1"
       inkscape:vp_z="1 : 0.5 : 1"
       inkscape:vp_y="0 : 1000 : 0"
       inkscape:vp_x="0 : 0.5 : 1"
       sodipodi:type="inkscape:persp3d" />
    <inkscape:perspective
       id="perspective4150-2"
       inkscape:persp3d-origin="0.5 : 0.33333333 : 1"
       inkscape:vp_z="1 : 0.5 : 1"
       inkscape:vp_y="0 : 1000 : 0"
       inkscape:vp_x="0 : 0.5 : 1"
       sodipodi:type="inkscape:persp3d" />
    <inkscape:perspective
       id="perspective4150-1"
       inkscape:persp3d-origin="0.5 : 0.33333333 : 1"
       inkscape:vp_z="1 : 0.5 : 1"
       inkscape:vp_y="0 : 1000 : 0"
       inkscape:vp_x="0 : 0.5 : 1"
       sodipodi:type="inkscape:persp3d" />
    <inkscape:perspective
       id="perspective4200"
       inkscape:persp3d-origin="0.5 : 0.33333333 : 1"
       inkscape:vp_z="1 : 0.5 : 1"
       inkscape:vp_y="0 : 1000 : 0"
       inkscape:vp_x="0 : 0.5 : 1"
       sodipodi:type="inkscape:persp3d" />
  </defs>
  <sodipodi:namedview
     id="base"
     pagecolor="#ffffff"
     bordercolor="#666666"
     borderopacity="1.0"
     inkscape:pageopacity="0.0"
     inkscape:pageshadow="2"
     inkscape:zoom="0.98994949"
     inkscape:cx="312.06198"
     inkscape:cy="406.22888"
     inkscape:document-units="px"
     inkscape:current-layer="layer1"
     showgrid="false"
     showguides="true"
     inkscape:guide-bbox="true"
     inkscape:window-width="1024"
     inkscape:window-height="557"
     inkscape:window-x="0"
     inkscape:window-y="21"
     inkscape:window-maximized="1">
    <inkscape:grid
       type="xygrid"
       id="grid3971" />
  </sodipodi:namedview>
  <metadata
     id="metadata7">
    <rdf:RDF>
      <cc:Work
         rdf:about="">
        <dc:format>image/svg+xml</dc:format>
        <dc:type
           rdf:resource="http://purl.org/dc/dcmitype/StillImage" />
        <dc:title></dc:title>
      </cc:Work>
    </rdf:RDF>
  </metadata>
  <g
     inkscape:label="Layer 1"
     inkscape:groupmode="layer"
     id="layer1">
    <path
       style="fill:#00b600;fill-opacity:1;stroke:#000000;stroke-width:1.14871776;stroke-linecap:butt;stroke-linejoin:miter;stroke-miterlimit:4;stroke-opacity:1;stroke-dasharray:none"
       d="m 246.77351,601.44175 c 0,0.8841 -2.65229,0.22103 -2.65229,-0.66307 0,-4.58225 1.25291,-15.32395 -1.98923,-18.56608 -5.80411,-5.80411 -11.36718,-6.34667 -18.56608,-9.94612 -1.45978,-0.72989 -1.32615,-2.33274 -1.32615,-3.97844 0,-6.32839 22.30711,0.8513 17.90301,-7.95689 -2.04349,-4.087 -19.89223,-2.34496 -19.89223,-15.91379 0,-7.02995 15.64531,1.2 17.23993,-1.98922 1.4759,-2.95181 -15.44585,-16.38172 -10.60919,-21.21838 3.75186,-3.75187 12.16686,3.74692 15.25071,0.66307 3.8317,-3.8317 -5.65407,-12.24894 3.97845,-21.88146 4.09104,-4.09104 6.28297,15.59849 11.93534,9.94612 2.7378,-2.73781 11.23904,-15.26732 17.903,-11.93534 7.19536,3.59768 -8.11103,14.27935 -6.63074,17.23993 0.33299,0.666 23.09984,-2.54453 15.25071,5.3046 -2.66919,2.66919 -22.15504,10.99868 -17.23993,15.91378 3.84102,3.84103 16.11108,-4.91 18.56608,0 2.44904,4.89809 -11.06278,12.49368 -13.92456,13.92457 -0.89298,0.44648 -1.60444,1.88271 -1.98922,2.6523 -3.55347,7.10693 19.38488,-2.96377 15.25071,5.30459 -0.85167,1.70332 -1.27122,2.95637 -3.31538,3.97844 -5.35539,2.6777 -16.47473,9.56353 -21.21838,11.93535 -8.77189,4.38594 -7.28184,21.53494 -13.92456,27.18604 z"
       id="path3731"
       sodipodi:nodetypes="csssssssssssssssssssssc"
       inkscape:export-filename="/home/dave/code/germinationx/code/experimental/clojure/fungi/textures/ghost-canopy.png"
       inkscape:export-xdpi="72"
       inkscape:export-ydpi="72" />
    <path
       style="fill:#00b600;fill-opacity:1;stroke:#000000;stroke-width:1.14871776;stroke-linecap:butt;stroke-linejoin:miter;stroke-miterlimit:4;stroke-opacity:1;stroke-dasharray:none"
       d="m 313.8497,557.8091 c -1.43009,4.49713 2.52669,-6.87908 2.52669,-7.39384 0,-3.31507 2.71684,-7.05592 4.63225,-9.85846 0.72925,-1.067 1.30668,-2.59142 1.68445,-3.69692 0.42689,-1.24921 6.82016,-6.08124 7.58006,-5.34001 1.32765,1.29504 2.20617,3.22796 3.36892,4.92924 1.91116,2.7963 4.82361,5.30254 6.31671,8.21538 1.77031,3.45364 2.23261,7.64168 3.79003,10.67999 0.56895,1.10996 0.22742,3.91877 0.42111,4.1077 0.48551,0.47358 3.36892,-1.01051 3.36892,0.41077 0,0.0396 2.73715,-0.10274 3.79002,0.41077 2.44002,1.19004 17.26568,6.96657 17.26568,8.62615 0,0.21582 -1.62432,0.66506 -2.10556,0.82154 -1.26592,0.4116 -2.67325,1.73838 -3.79003,2.46461 -3.95727,2.57338 -7.7257,6.84872 -12.21231,9.03692 -0.61827,0.30154 -2.51632,0.40066 -2.9478,0.82154 -3.33348,3.25159 5.31201,12.0708 4.63225,12.73384 -0.38833,0.3788 -3.73761,-0.41076 -4.63225,-0.41076 -4.87837,0 -13.75341,0.69044 -16.00235,-3.69693 -0.53585,-1.04537 -6.5008,-8.21538 -4.63225,-8.21538 0.64742,0 -1.91174,6.60494 -2.10557,6.98308 -1.74399,3.40228 -18.52902,13.23531 -18.52902,10.68 0,-0.14837 4.47084,-3.38203 5.05336,-4.51846 0.81821,-1.59622 2.10558,-4.16914 2.10558,-6.16154 0,-0.47748 0.42111,-1.82389 0.42111,-1.64308 0,2.16145 -10.07656,-2.72865 -10.52785,-2.87539 -5.97228,-1.94185 -7.06174,-8.94209 -10.52786,-12.32307 -1.08495,-1.05829 -2.1881,-4.1882 -2.10556,-4.10769 0.98764,0.9634 14.00021,-5.34 16.42344,-5.34 1.0811,0 7.45601,-4.51846 6.31672,-4.51846"
       id="path3733"
       sodipodi:nodetypes="cssssssssssssssssssssssssssssc"
       inkscape:export-filename="/home/dave/code/germinationx/code/experimental/clojure/fungi/textures/ghost-vertical.png"
       inkscape:export-xdpi="72"
       inkscape:export-ydpi="72" />
    <path
       style="fill:#00b600;fill-opacity:1;stroke:#000000;stroke-width:0.82051271;stroke-linecap:butt;stroke-linejoin:miter;stroke-miterlimit:4;stroke-opacity:1;stroke-dasharray:none"
       d="m 404.00208,588.85208 c -0.0587,0.43778 -0.0328,1.73113 -0.17607,1.31332 -0.20264,-0.59086 -0.0798,-1.25247 -0.0162,-1.87387 0.0324,-0.31686 0.84045,0.48233 0.93857,0.17928 0.0857,-0.26471 -0.1777,-1.49767 0.36183,-1.50233 0.0551,-5e-4 0.54516,0.57953 0.56701,0.5573 0.62585,-0.63675 -0.15977,-3.24005 0.15664,-3.56198 0.0314,-0.032 0.67334,0.7438 0.75602,0.74308 0.32371,-0.003 0.23354,-0.99377 0.36507,-1.12756 0.25531,-0.25976 1.19718,0.29402 0.94179,0.55407 -0.0291,0.0297 -1.01189,-2.42749 -0.20842,-2.43442 0.4487,-0.004 0.82752,1.18495 0.75925,1.11786 -0.67285,-0.66135 1.80158,-2.48628 2.03376,-3.2034 0.32962,-1.0181 1.22592,1.02112 1.13402,1.11461 -0.17284,0.17587 -0.36188,-2.63237 1.28421,-3.1969 0.2507,-0.0859 0.75603,0.74307 0.56702,0.55731 -0.28175,-0.27694 0.72602,-0.3811 1.12109,-0.38448 0.42608,-0.004 0.0414,-0.79829 0.17928,-0.93856 0.98963,-1.00687 0.39708,2.57981 0.37477,-0.003 -0.005,-0.4997 1.14881,0.34344 1.4991,-0.0129 0.18601,-0.18925 -0.43321,-1.49548 -0.0129,-1.49911 0.10643,-6.5e-4 0.9051,0.96948 0.94504,0.92886 0.0822,-0.0836 0.0694,-1.78978 0.55083,-1.31657 0.0626,0.0615 0.74569,1.50971 0.57671,1.68164 -0.0116,0.0117 0.34237,-1.50217 0.7366,-1.50557 0.56216,-0.005 1.11947,-0.57187 1.68164,-0.57671 0.23437,-0.002 1.08418,1.48985 1.88682,1.48292 0.42652,-0.004 -0.0582,-0.74911 0.3683,-0.75279 0.31232,-0.003 0.63272,0.93154 0.94503,0.92885 0.18738,-0.002 0.36991,-0.56541 0.55731,-0.56703 0.48808,-0.004 0.22201,0.93511 0.57025,0.93209 1.3256,-0.0114 -0.32421,-1.12161 1.48939,-1.13727 0.29914,-0.003 0.64929,0.8331 0.94503,0.92885 0.16106,0.0522 0.9354,-0.18564 0.93857,0.17928 0.003,0.32321 -0.51498,1.07902 0.19871,1.3101 0.26972,0.0873 2.06601,0.53101 2.06935,0.91913 0.001,0.17667 -0.37307,0.20133 -0.37155,0.37801 0.006,0.64987 1.31272,0.10399 1.31657,0.55083 0.003,0.37571 -0.66871,0.30192 -0.74631,0.38126 -0.25531,0.25977 0.68204,0.29875 0.94181,0.55407 0.1402,0.13781 -0.9327,0.50061 -0.93209,0.57025 0.002,0.24986 0.75386,0.49323 0.75602,0.74308 0.005,0.51276 -1.16308,0.42722 -1.12109,0.38447 0.18576,-0.189 0.56473,0.2923 0.56701,0.55731 0.003,0.36422 -0.67675,0.31051 -0.93208,0.57025 -0.54046,0.54988 1.13133,0.80264 1.13404,1.11461 0.005,0.51256 -1.3089,0.33731 -1.30363,0.94827 0.004,0.4675 0.22121,1.66528 0.0161,1.87388 -0.25545,0.2599 -1.16995,-0.12334 -0.93208,0.57025 0.0179,0.0513 0.58065,0.54344 0.56701,0.55731 -0.61922,0.63003 -3.2394,1.02747 -2.62018,0.39743 0.25531,-0.25976 0.82557,0.67232 0.57025,0.93208 -0.46882,0.47701 -1.74443,0.26256 -2.24217,0.76897 -0.007,0.008 -1.13852,2.25865 -1.85446,2.26484 -0.23024,0.002 -0.56316,-0.30805 -0.93856,-0.17927 -0.57282,0.19642 0.37672,0.37285 0.007,0.74953 -0.26272,0.2673 -0.74956,0.007 -1.12433,0.01 -0.35357,0.003 0.27594,0.68683 0.19549,0.93531 -0.29074,0.89803 -1.14061,0.40434 -1.49263,0.7625 -0.36236,0.36867 0.9249,1.06104 -0.36182,1.50235 -3.14561,1.07879 -7.67618,-0.36751 -10.88142,-1.40525 -1.07839,-0.34914 -2.64328,-3.12699 -4.33418,-2.77359"
       id="path3735-8"
       inkscape:transform-center-x="12.922908"
       inkscape:transform-center-y="-2.8088183"
       inkscape:export-filename="/home/dave/code/germinationx/code/experimental/clojure/fungi/textures/ghost-cover.png"
       inkscape:export-xdpi="72"
       inkscape:export-ydpi="72" />
    <path
       style="fill:#00b600;fill-opacity:1;stroke:#000000;stroke-width:0.82051271;stroke-linecap:butt;stroke-linejoin:miter;stroke-miterlimit:4;stroke-opacity:1;stroke-dasharray:none"
       d="m 403.78326,593.5448 c 0.38942,-0.20844 1.42339,-0.98584 1.16828,-0.62526 -0.36077,0.50993 -0.96929,0.79721 -1.51054,1.10903 -0.27599,0.15896 -0.10028,-0.96382 -0.40348,-0.86618 -0.26485,0.0853 -1.11092,1.02003 -1.43023,0.58512 -0.0326,-0.0444 0.15126,-0.78115 0.12046,-0.78587 -0.88253,-0.13527 -2.53476,2.02449 -2.98093,1.95609 -0.0443,-0.007 0.20953,-0.98117 0.1606,-1.04782 -0.19159,-0.26094 -0.94267,0.39176 -1.12813,0.3633 -0.36003,-0.0552 -0.46138,-1.14315 -0.10135,-1.08797 0.0411,0.007 -1.37729,2.24047 -1.8528,1.59279 -0.26556,-0.36172 0.47722,-1.36426 0.46271,-1.26964 -0.14294,0.93257 -3.07037,-0.007 -3.78784,0.22375 -1.01861,0.32804 0.11133,-1.5916 0.2409,-1.57173 0.24374,0.0374 -1.92362,1.83304 -3.34424,0.82796 -0.21632,-0.15309 0.16062,-1.04783 0.12046,-0.78587 -0.0599,0.3905 -0.73372,-0.36605 -0.96752,-0.68452 -0.25217,-0.34347 -0.67176,0.43326 -0.86617,0.40348 -1.39548,-0.21389 1.86042,-1.83086 -0.22179,-0.3021 -0.40281,0.29574 -0.39328,-1.13273 -0.88722,-1.20843 -0.2623,-0.0402 -0.9597,1.22601 -1.20844,0.88721 -0.0629,-0.0858 0.25707,-1.30115 0.20076,-1.30979 -0.11591,-0.0178 -1.49236,0.99044 -1.39008,0.32316 0.0133,-0.0868 0.78851,-1.4878 1.02678,-1.45128 0.0162,0.003 -1.41881,0.60059 -1.65205,0.283 -0.33271,-0.45316 -1.11857,-0.57361 -1.45129,-1.02677 -0.13873,-0.18892 0.57445,-1.75075 0.0994,-2.39776 -0.25244,-0.34382 -0.5736,0.48531 -0.82603,0.1415 -0.18483,-0.25176 0.38559,-1.05803 0.20077,-1.30979 -0.11089,-0.15106 -0.67498,0.0306 -0.78588,-0.12045 -0.28886,-0.39345 0.62865,-0.72698 0.42257,-1.00767 -0.78454,-1.06857 -0.7202,0.91894 -1.79355,-0.54303 -0.17704,-0.24112 0.29605,-1.01388 0.20076,-1.30977 -0.0519,-0.16114 -0.69764,-0.6502 -0.40348,-0.86617 0.26055,-0.19128 1.17642,-0.21333 0.94648,-0.92737 -0.0869,-0.26986 -0.77753,-1.98641 -0.46466,-2.2161 0.14241,-0.10458 0.38149,0.18487 0.52391,0.0803 0.52386,-0.38462 -0.68337,-1.12562 -0.32316,-1.39009 0.30286,-0.22235 0.63599,0.36586 0.74573,0.3824 0.36002,0.0552 -0.15653,-0.72794 -0.10135,-1.08798 0.0298,-0.19431 0.95153,0.46379 1.00767,0.42257 0.20139,-0.14789 -0.0408,-0.89995 0.16061,-1.04782 0.41334,-0.30348 1.02675,0.69358 0.96752,0.68452 -0.26196,-0.0402 -0.0932,-0.62903 0.12045,-0.78587 0.2936,-0.21556 0.64767,0.36735 1.00768,0.42256 0.76211,0.11681 -0.0106,-1.3871 0.2409,-1.57174 0.41317,-0.30335 1.03908,0.86446 1.53159,0.50287 0.37685,-0.27669 1.22144,-1.15335 1.51055,-1.10903 0.36021,0.0552 0.58417,1.02115 1.00766,0.42256 0.0312,-0.0444 0.10124,-0.78881 0.12046,-0.78587 0.87319,0.13384 2.72793,2.02679 1.85475,1.89295 -0.36002,-0.0552 0.0625,-1.06286 0.42256,-1.00767 0.66111,0.10133 1.23317,1.26146 1.93505,1.36903 0.0104,10e-4 2.49795,-0.3974 2.92167,0.17971 0.13626,0.18562 0.0795,0.63697 0.40348,0.86616 0.49435,0.34978 0.0821,-0.52362 0.60421,-0.4436 0.37046,0.0568 0.44361,0.60421 0.66542,0.90633 0.20925,0.28501 0.39576,-0.62551 0.64436,-0.70557 0.89847,-0.28935 0.99504,0.68873 1.49144,0.76482 0.51097,0.0783 0.31976,-1.37077 1.43024,-0.58513 2.71471,1.92066 4.19115,6.4415 5.2239,9.64835 0.34747,1.07894 -0.9906,3.97287 0.28495,5.13779"
       id="path3735-5"
       inkscape:transform-center-x="7.7217058"
       inkscape:transform-center-y="-3.856089"
       inkscape:export-filename="/home/dave/code/germinationx/code/experimental/clojure/fungi/textures/ghost-cover.png"
       inkscape:export-xdpi="72"
       inkscape:export-ydpi="72" />
    <path
       style="fill:#00b600;fill-opacity:1;stroke:#000000;stroke-width:0.82051271;stroke-linecap:butt;stroke-linejoin:miter;stroke-miterlimit:4;stroke-opacity:1;stroke-dasharray:none"
       d="m 403.93255,588.1534 c 0.3763,0.23128 1.5689,0.73242 1.1289,0.69384 -0.62226,-0.0546 -1.1771,-0.4353 -1.71923,-0.74559 -0.27643,-0.15822 0.78186,-0.57243 0.54472,-0.78506 -0.20716,-0.18574 -1.44094,-0.44532 -1.22626,-0.94031 0.0219,-0.0505 0.7509,-0.26311 0.73944,-0.2921 -0.32801,-0.83039 -3.02615,-1.16873 -3.19198,-1.58855 -0.0165,-0.0417 0.95303,-0.3136 0.98593,-0.38946 0.1288,-0.29699 -0.81349,-0.61671 -0.88242,-0.7912 -0.13381,-0.33876 0.75475,-0.9747 0.88857,-0.63594 0.0153,0.0387 -2.62926,-0.0602 -2.30956,-0.79735 0.17853,-0.41168 1.41881,-0.2755 1.32977,-0.24033 -0.87747,0.34661 -1.54133,-2.65547 -2.10254,-3.15867 -0.79675,-0.71439 1.43073,-0.70611 1.47889,-0.58418 0.0906,0.22934 -2.55276,-0.73742 -2.40077,-2.47097 0.0232,-0.26401 0.98593,-0.38946 0.73944,-0.29209 -0.36743,0.14513 -0.0537,-0.81821 0.10351,-1.18066 0.16954,-0.39092 -0.71279,-0.3618 -0.78505,-0.54472 -0.51867,-1.31306 2.51901,0.68392 0.14912,-0.34385 -0.45846,-0.19882 0.78007,-0.91061 0.59648,-1.37538 -0.0975,-0.2468 -1.54261,-0.21088 -1.37539,-0.59648 0.0423,-0.0977 1.25334,-0.43384 1.23241,-0.48682 -0.0431,-0.10907 -1.60764,-0.78967 -0.97978,-1.03768 0.0817,-0.0323 1.68243,-0.0689 1.77099,0.15526 0.006,0.0154 -1.23401,-0.92248 -1.07715,-1.28417 0.22368,-0.51576 -0.0684,-1.25522 0.15526,-1.77098 0.0933,-0.21503 1.80162,-0.38635 2.12099,-1.12276 0.1697,-0.39132 -0.70829,-0.25076 -0.53858,-0.64208 0.12426,-0.28654 1.10814,-0.20028 1.23241,-0.48682 0.0746,-0.17192 -0.36665,-0.56752 -0.29209,-0.73945 0.1942,-0.4478 0.94474,0.17651 1.08329,-0.14297 0.52744,-1.2162 -1.15667,-0.15881 -0.43506,-1.82275 0.11902,-0.27444 1.02489,-0.25537 1.23242,-0.48681 0.11301,-0.12605 0.2099,-0.93026 0.54471,-0.78506 0.29654,0.12861 0.77724,0.90852 1.27803,0.34999 0.18926,-0.21108 1.32369,-1.67278 1.67976,-1.51835 0.1621,0.0703 0.0326,0.42267 0.19473,0.49296 0.59624,0.25858 0.62772,-1.15758 1.03768,-0.97978 0.3447,0.14949 0.005,0.7337 0.0456,0.83681 0.13382,0.33876 0.54981,-0.50212 0.88857,-0.63594 0.18285,-0.0722 0.0791,1.05559 0.14297,1.0833 0.22923,0.0994 0.7567,-0.48887 0.98593,-0.38946 0.47045,0.20403 -0.0815,1.23638 -0.10351,1.18066 -0.0974,-0.24648 0.49631,-0.39754 0.73944,-0.2921 0.33417,0.14493 0.009,0.74454 0.14298,1.0833 0.28326,0.7171 1.19267,-0.70831 1.47889,-0.58418 0.47026,0.20394 -0.22285,1.33315 0.3377,1.57626 0.42893,0.18601 1.61178,0.47356 1.71924,0.74559 0.13388,0.33894 -0.58748,1.01926 0.14297,1.0833 0.0541,0.005 0.73231,-0.31018 0.73945,-0.29209 0.32455,0.8216 -0.37544,3.37765 -0.69999,2.55604 -0.13381,-0.33876 0.94948,-0.48174 1.0833,-0.14298 0.24572,0.62206 -0.4679,1.70091 -0.20702,2.36132 0.004,0.01 1.60234,1.9571 1.31748,2.61395 -0.0916,0.21124 -0.51006,0.38972 -0.54472,0.78505 -0.0529,0.60326 0.49364,-0.193 0.68769,0.29824 0.1377,0.34858 -0.29823,0.68769 -0.44735,1.03154 -0.14069,0.32439 0.73971,0.0265 0.93417,0.20087 0.70279,0.63013 -0.0933,1.20655 0.0912,1.67362 0.18992,0.48079 1.34507,-0.41478 1.22627,0.94033 -0.29044,3.31274 -3.45074,6.86667 -5.69983,9.37506 -0.7567,0.84394 -3.93057,1.147 -4.29372,2.83584"
       id="path3735"
       inkscape:export-filename="/home/dave/code/germinationx/code/experimental/clojure/fungi/textures/ghost-cover.png"
       inkscape:export-xdpi="72"
       inkscape:export-ydpi="72" />
    <path
       sodipodi:type="arc"
       style="fill:#000000;fill-opacity:1;stroke:#000101;stroke-width:1;stroke-linecap:round;stroke-linejoin:round;stroke-miterlimit:4;stroke-opacity:1;stroke-dasharray:none"
       id="path3768-3-0"
       sodipodi:cx="432.14285"
       sodipodi:cy="520.2193"
       sodipodi:rx="15.714286"
       sodipodi:ry="15.714286"
       d="m 447.85714,520.2193 a 15.714286,15.714286 0 0 1 -31.4204,0.50665 l 15.70611,-0.50665 z"
       sodipodi:start="0"
       sodipodi:end="3.1093458"
       transform="matrix(-0.45516887,-0.0087488,0.0087488,-0.45516887,666.139,688.83737)" />
    <path
       sodipodi:type="arc"
       style="fill:#000000;fill-opacity:1;stroke:#000101;stroke-width:1;stroke-linecap:round;stroke-linejoin:round;stroke-miterlimit:4;stroke-opacity:1;stroke-dasharray:none"
       id="path3768-2"
       sodipodi:cx="432.14285"
       sodipodi:cy="520.2193"
       sodipodi:rx="15.714286"
       sodipodi:ry="15.714286"
       d="m 447.85714,520.2193 a 15.714286,15.714286 0 0 1 -31.4204,0.50665 l 15.70611,-0.50665 z"
       sodipodi:start="0"
       sodipodi:end="3.1093458"
       transform="matrix(0.47653443,0,0,0.47653443,291.19515,193.59465)" />
    <path
       sodipodi:type="arc"
       style="fill:#000000;fill-opacity:1;stroke:#000101;stroke-width:1;stroke-linecap:round;stroke-linejoin:round;stroke-miterlimit:4;stroke-opacity:1;stroke-dasharray:none"
       id="path3770-6-6-5"
       sodipodi:cx="416.42856"
       sodipodi:cy="499.50504"
       sodipodi:rx="4.2857141"
       sodipodi:ry="4.2857141"
       d="m 420.71427,499.50504 a 4.2857141,4.2857141 0 1 1 -8.57143,0 4.2857141,4.2857141 0 1 1 8.57143,0 z"
       transform="matrix(0.29883265,0,0,0.29883265,121.86689,413.20303)"
       inkscape:export-filename="/home/dave/code/germinationx/code/experimental/clojure/fungi/textures/ghost-canopy.png"
       inkscape:export-xdpi="72"
       inkscape:export-ydpi="72" />
    <path
       transform="matrix(0.29883265,0,0,0.29883265,129.97806,412.98957)"
       sodipodi:type="arc"
       style="fill:#000000;fill-opacity:1;stroke:#000101;stroke-width:1;stroke-linecap:round;stroke-linejoin:round;stroke-miterlimit:4;stroke-opacity:1;stroke-dasharray:none"
       id="path3770-0-1-3-4"
       sodipodi:cx="416.42856"
       sodipodi:cy="499.50504"
       sodipodi:rx="4.2857141"
       sodipodi:ry="4.2857141"
       d="m 420.71427,499.50504 a 4.2857141,4.2857141 0 1 1 -8.57143,0 4.2857141,4.2857141 0 1 1 8.57143,0 z"
       inkscape:export-filename="/home/dave/code/germinationx/code/experimental/clojure/fungi/textures/ghost-canopy.png"
       inkscape:export-xdpi="72"
       inkscape:export-ydpi="72" />
    <path
       sodipodi:type="arc"
       style="fill:#000000;fill-opacity:1;stroke:#000101;stroke-width:1;stroke-linecap:round;stroke-linejoin:round;stroke-miterlimit:4;stroke-opacity:1;stroke-dasharray:none"
       id="path3770-6-6-6"
       sodipodi:cx="416.42856"
       sodipodi:cy="499.50504"
       sodipodi:rx="4.2857141"
       sodipodi:ry="4.2857141"
       d="m 420.71427,499.50504 a 4.2857141,4.2857141 0 1 1 -8.57143,0 4.2857141,4.2857141 0 1 1 8.57143,0 z"
       transform="matrix(0.29883265,0,0,0.29883265,199.7371,416.16436)"
       inkscape:export-filename="/home/dave/code/germinationx/code/experimental/clojure/fungi/textures/ghost-vertical.png"
       inkscape:export-xdpi="72"
       inkscape:export-ydpi="72" />
    <path
       transform="matrix(0.29883265,0,0,0.29883265,207.84827,415.95091)"
       sodipodi:type="arc"
       style="fill:#000000;fill-opacity:1;stroke:#000101;stroke-width:1;stroke-linecap:round;stroke-linejoin:round;stroke-miterlimit:4;stroke-opacity:1;stroke-dasharray:none"
       id="path3770-0-1-3-5"
       sodipodi:cx="416.42856"
       sodipodi:cy="499.50504"
       sodipodi:rx="4.2857141"
       sodipodi:ry="4.2857141"
       d="m 420.71427,499.50504 a 4.2857141,4.2857141 0 1 1 -8.57143,0 4.2857141,4.2857141 0 1 1 8.57143,0 z"
       inkscape:export-filename="/home/dave/code/germinationx/code/experimental/clojure/fungi/textures/ghost-vertical.png"
       inkscape:export-xdpi="72"
       inkscape:export-ydpi="72" />
    <path
       sodipodi:type="arc"
       style="fill:#000000;fill-opacity:1;stroke:#000101;stroke-width:1;stroke-linecap:round;stroke-linejoin:round;stroke-miterlimit:4;stroke-opacity:1;stroke-dasharray:none"
       id="path3770-6-6-9"
       sodipodi:cx="416.42856"
       sodipodi:cy="499.50504"
       sodipodi:rx="4.2857141"
       sodipodi:ry="4.2857141"
       d="m 420.71427,499.50504 a 4.2857141,4.2857141 0 1 1 -8.57143,0 4.2857141,4.2857141 0 1 1 8.57143,0 z"
       transform="matrix(0.29883265,0,0,0.29883265,277.44637,422.02651)"
       inkscape:export-filename="/home/dave/code/germinationx/code/experimental/clojure/fungi/textures/ghost-cover.png"
       inkscape:export-xdpi="72"
       inkscape:export-ydpi="72" />
    <path
       transform="matrix(0.29883265,0,0,0.29883265,285.55755,421.81306)"
       sodipodi:type="arc"
       style="fill:#000000;fill-opacity:1;stroke:#000101;stroke-width:1;stroke-linecap:round;stroke-linejoin:round;stroke-miterlimit:4;stroke-opacity:1;stroke-dasharray:none"
       id="path3770-0-1-3-3"
       sodipodi:cx="416.42856"
       sodipodi:cy="499.50504"
       sodipodi:rx="4.2857141"
       sodipodi:ry="4.2857141"
       d="m 420.71427,499.50504 a 4.2857141,4.2857141 0 1 1 -8.57143,0 4.2857141,4.2857141 0 1 1 8.57143,0 z"
       inkscape:export-filename="/home/dave/code/germinationx/code/experimental/clojure/fungi/textures/ghost-cover.png"
       inkscape:export-xdpi="72"
       inkscape:export-ydpi="72" />
    <rect
       style="fill:#80bb80;fill-opacity:1;stroke:#000101;stroke-width:1;stroke-linecap:round;stroke-linejoin:round;stroke-miterlimit:4;stroke-opacity:1;stroke-dasharray:none"
       id="rect3944"
       width="144.28572"
       height="78.571426"
       x="493.09143"
       y="490.82486"
       ry="21.213203" />
    <path
       sodipodi:type="arc"
       style="fill:#80bb80;fill-opacity:1;stroke:#000101;stroke-width:1;stroke-linecap:round;stroke-linejoin:round;stroke-miterlimit:4;stroke-opacity:1;stroke-dasharray:none"
       id="path3946"
       sodipodi:cx="223.57143"
       sodipodi:cy="440.93362"
       sodipodi:rx="9.2857141"
       sodipodi:ry="9.2857141"
       d="m 232.85714,440.93362 a 9.2857141,9.2857141 0 1 1 -18.57143,0 9.2857141,9.2857141 0 1 1 18.57143,0 z"
       transform="translate(263.80571,129.17697)" />
    <path
       sodipodi:type="arc"
       style="fill:#80bb80;fill-opacity:1;stroke:#000101;stroke-width:1;stroke-linecap:round;stroke-linejoin:round;stroke-miterlimit:4;stroke-opacity:1;stroke-dasharray:none"
       id="path3948"
       sodipodi:cx="197.85715"
       sodipodi:cy="464.50504"
       sodipodi:rx="5"
       sodipodi:ry="5"
       d="m 202.85715,464.50504 a 5,5 0 1 1 -10,0 5,5 0 1 1 10,0 z"
       transform="translate(280.23428,122.7484)" />
    <rect
       style="fill:none;fill-opacity:1;stroke:none;stroke-width:1;stroke-linecap:round;stroke-linejoin:round;stroke-miterlimit:4;stroke-opacity:1;stroke-dasharray:none"
       id="rect3973"
       width="80"
       height="130"
       x="210"
       y="472.36218"
       ry="0"
       inkscape:export-filename="/home/dave/code/germinationx/code/experimental/clojure/fungi/textures/ghost-canopy.png"
       inkscape:export-xdpi="72"
       inkscape:export-ydpi="72" />
    <rect
       style="fill:none;stroke:none;stroke-width:1;stroke-linecap:round;stroke-linejoin:round;stroke-miterlimit:4;stroke-opacity:1;stroke-dasharray:none"
       id="rect3973-4"
       width="80"
       height="130"
       x="290"
       y="472.36218"
       ry="0"
       inkscape:export-filename="/home/dave/code/germinationx/code/experimental/clojure/fungi/textures/ghost-vertical.png"
       inkscape:export-xdpi="72"
       inkscape:export-ydpi="72" />
    <rect
       style="fill:none;stroke:none;stroke-width:1;stroke-linecap:round;stroke-linejoin:round;stroke-miterlimit:4;stroke-opacity:1;stroke-dasharray:none"
       id="rect3973-2"
       width="80"
       height="130"
       x="370"
       y="472.36218"
       ry="0"
       inkscape:export-filename="/home/dave/code/germinationx/code/experimental/clojure/fungi/textures/ghost-cover.png"
       inkscape:export-xdpi="72"
       inkscape:export-ydpi="72" />
    <path
       style="fill:#00b600;fill-opacity:1;stroke:#000000;stroke-width:1.14871776;stroke-linecap:butt;stroke-linejoin:miter;stroke-miterlimit:4;stroke-opacity:1;stroke-dasharray:none"
       d="m 246.77352,731.44173 c 0,0.8841 -2.65229,0.22103 -2.65229,-0.66307 0,-4.58225 1.25291,-15.32395 -1.98923,-18.56608 -5.80411,-5.80411 -11.36718,-6.34667 -18.56608,-9.94612 -1.45978,-0.72989 -1.32615,-2.33274 -1.32615,-3.97844 0,-6.32839 22.30711,0.8513 17.90301,-7.95689 -2.04349,-4.087 -19.89223,-2.34496 -19.89223,-15.91379 0,-7.02995 15.64531,1.2 17.23993,-1.98922 1.4759,-2.95181 -15.44585,-16.38172 -10.60919,-21.21838 3.75186,-3.75187 12.16686,3.74692 15.25071,0.66307 3.8317,-3.8317 -5.65407,-12.24894 3.97845,-21.88146 4.09104,-4.09104 6.28297,15.59849 11.93534,9.94612 2.7378,-2.73781 11.23904,-15.26732 17.903,-11.93534 7.19536,3.59768 -8.11103,14.27935 -6.63074,17.23993 0.33299,0.666 23.09984,-2.54453 15.25071,5.3046 -2.66919,2.66919 -22.15504,10.99868 -17.23993,15.91378 3.84102,3.84103 16.11108,-4.91 18.56608,0 2.44904,4.89809 -11.06278,12.49368 -13.92456,13.92457 -0.89298,0.44648 -1.60444,1.88271 -1.98922,2.6523 -3.55347,7.10693 19.38488,-2.96377 15.25071,5.30459 -0.85167,1.70332 -1.27122,2.95637 -3.31538,3.97844 -5.35539,2.6777 -16.47473,9.56353 -21.21838,11.93535 -8.77189,4.38594 -7.28184,21.53494 -13.92456,27.18604 z"
       id="path3731-5"
       sodipodi:nodetypes="csssssssssssssssssssssc"
       inkscape:export-filename="/home/dave/code/germinationx/code/experimental/clojure/fungi/textures/ghost-canopy-happy.png"
       inkscape:export-xdpi="72"
       inkscape:export-ydpi="72" />
    <path
       style="fill:#00b600;fill-opacity:1;stroke:#000000;stroke-width:1.14871776;stroke-linecap:butt;stroke-linejoin:miter;stroke-miterlimit:4;stroke-opacity:1;stroke-dasharray:none"
       d="m 313.84971,687.80908 c -1.43009,4.49713 2.52669,-6.87908 2.52669,-7.39384 0,-3.31507 2.71684,-7.05592 4.63225,-9.85846 0.72925,-1.067 1.30668,-2.59142 1.68445,-3.69692 0.42689,-1.24921 6.82016,-6.08124 7.58006,-5.34001 1.32765,1.29504 2.20617,3.22796 3.36892,4.92924 1.91116,2.7963 4.82361,5.30254 6.31671,8.21538 1.77031,3.45364 2.23261,7.64168 3.79003,10.67999 0.56895,1.10996 0.22742,3.91877 0.42111,4.1077 0.48551,0.47358 3.36892,-1.01051 3.36892,0.41077 0,0.0396 2.73715,-0.10274 3.79002,0.41077 2.44002,1.19004 17.26568,6.96657 17.26568,8.62615 0,0.21582 -1.62432,0.66506 -2.10556,0.82154 -1.26592,0.4116 -2.67325,1.73838 -3.79003,2.46461 -3.95727,2.57338 -7.7257,6.84872 -12.21231,9.03692 -0.61827,0.30154 -2.51632,0.40066 -2.9478,0.82154 -3.33348,3.25159 5.31201,12.0708 4.63225,12.73384 -0.38833,0.3788 -3.73761,-0.41076 -4.63225,-0.41076 -4.87837,0 -13.75341,0.69044 -16.00235,-3.69693 -0.53585,-1.04537 -6.5008,-8.21538 -4.63225,-8.21538 0.64742,0 -1.91174,6.60494 -2.10557,6.98308 -1.74399,3.40228 -18.52902,13.23531 -18.52902,10.68 0,-0.14837 4.47084,-3.38203 5.05336,-4.51846 0.81821,-1.59622 2.10558,-4.16914 2.10558,-6.16154 0,-0.47748 0.42111,-1.82389 0.42111,-1.64308 0,2.16145 -10.07656,-2.72865 -10.52785,-2.87539 -5.97228,-1.94185 -7.06174,-8.94209 -10.52786,-12.32307 -1.08495,-1.05829 -2.1881,-4.1882 -2.10556,-4.10769 0.98764,0.9634 14.00021,-5.34 16.42344,-5.34 1.0811,0 7.45601,-4.51846 6.31672,-4.51846"
       id="path3733-4"
       sodipodi:nodetypes="cssssssssssssssssssssssssssssc"
       inkscape:export-filename="/home/dave/code/germinationx/code/experimental/clojure/fungi/textures/ghost-vertical-happy.png"
       inkscape:export-xdpi="72"
       inkscape:export-ydpi="72" />
    <path
       style="fill:#00b600;fill-opacity:1;stroke:#000000;stroke-width:0.82051271;stroke-linecap:butt;stroke-linejoin:miter;stroke-miterlimit:4;stroke-opacity:1;stroke-dasharray:none"
       d="m 404.00209,718.85206 c -0.0587,0.43778 -0.0328,1.73113 -0.17607,1.31332 -0.20264,-0.59086 -0.0798,-1.25247 -0.0162,-1.87387 0.0324,-0.31686 0.84045,0.48233 0.93857,0.17928 0.0857,-0.26471 -0.1777,-1.49767 0.36183,-1.50233 0.0551,-5e-4 0.54516,0.57953 0.56701,0.5573 0.62585,-0.63675 -0.15977,-3.24005 0.15664,-3.56198 0.0314,-0.032 0.67334,0.7438 0.75602,0.74308 0.32371,-0.003 0.23354,-0.99377 0.36507,-1.12756 0.25531,-0.25976 1.19718,0.29402 0.94179,0.55407 -0.0291,0.0297 -1.01189,-2.42749 -0.20842,-2.43442 0.4487,-0.004 0.82752,1.18495 0.75925,1.11786 -0.67285,-0.66135 1.80158,-2.48628 2.03376,-3.2034 0.32962,-1.0181 1.22592,1.02112 1.13402,1.11461 -0.17284,0.17587 -0.36188,-2.63237 1.28421,-3.1969 0.2507,-0.0859 0.75603,0.74307 0.56702,0.55731 -0.28175,-0.27694 0.72602,-0.3811 1.12109,-0.38448 0.42608,-0.004 0.0414,-0.79829 0.17928,-0.93856 0.98963,-1.00687 0.39708,2.57981 0.37477,-0.003 -0.005,-0.4997 1.14881,0.34344 1.4991,-0.0129 0.18601,-0.18925 -0.43321,-1.49548 -0.0129,-1.49911 0.10643,-6.5e-4 0.9051,0.96948 0.94504,0.92886 0.0822,-0.0836 0.0694,-1.78978 0.55083,-1.31657 0.0626,0.0615 0.74569,1.50971 0.57671,1.68164 -0.0116,0.0117 0.34237,-1.50217 0.7366,-1.50557 0.56216,-0.005 1.11947,-0.57187 1.68164,-0.57671 0.23437,-0.002 1.08418,1.48985 1.88682,1.48292 0.42652,-0.004 -0.0582,-0.74911 0.3683,-0.75279 0.31232,-0.003 0.63272,0.93154 0.94503,0.92885 0.18738,-0.002 0.36991,-0.56541 0.55731,-0.56703 0.48808,-0.004 0.22201,0.93511 0.57025,0.93209 1.3256,-0.0114 -0.32421,-1.12161 1.48939,-1.13727 0.29914,-0.003 0.64929,0.8331 0.94503,0.92885 0.16106,0.0522 0.9354,-0.18564 0.93857,0.17928 0.003,0.32321 -0.51498,1.07902 0.19871,1.3101 0.26972,0.0873 2.06601,0.53101 2.06935,0.91913 10e-4,0.17667 -0.37307,0.20133 -0.37155,0.37801 0.006,0.64987 1.31272,0.10399 1.31657,0.55083 0.003,0.37571 -0.66871,0.30192 -0.74631,0.38126 -0.25531,0.25977 0.68204,0.29875 0.94181,0.55407 0.1402,0.13781 -0.9327,0.50061 -0.93209,0.57025 0.002,0.24986 0.75386,0.49323 0.75602,0.74308 0.005,0.51276 -1.16308,0.42722 -1.12109,0.38447 0.18576,-0.189 0.56473,0.2923 0.56701,0.55731 0.003,0.36422 -0.67675,0.31051 -0.93208,0.57025 -0.54046,0.54988 1.13133,0.80264 1.13404,1.11461 0.005,0.51256 -1.3089,0.33731 -1.30363,0.94827 0.004,0.4675 0.22121,1.66528 0.0161,1.87388 -0.25545,0.2599 -1.16995,-0.12334 -0.93208,0.57025 0.0179,0.0513 0.58065,0.54344 0.56701,0.55731 -0.61922,0.63003 -3.2394,1.02747 -2.62018,0.39743 0.25531,-0.25976 0.82557,0.67232 0.57025,0.93208 -0.46882,0.47701 -1.74443,0.26256 -2.24217,0.76897 -0.007,0.008 -1.13852,2.25865 -1.85446,2.26484 -0.23024,0.002 -0.56316,-0.30805 -0.93856,-0.17927 -0.57282,0.19642 0.37672,0.37285 0.007,0.74953 -0.26272,0.2673 -0.74956,0.007 -1.12433,0.01 -0.35357,0.003 0.27594,0.68683 0.19549,0.93531 -0.29074,0.89803 -1.14061,0.40434 -1.49263,0.7625 -0.36236,0.36867 0.9249,1.06104 -0.36182,1.50235 -3.14561,1.07879 -7.67618,-0.36751 -10.88142,-1.40525 -1.07839,-0.34914 -2.64328,-3.12699 -4.33418,-2.77359"
       id="path3735-8-7"
       inkscape:transform-center-x="12.922908"
       inkscape:transform-center-y="-2.8088183"
       inkscape:export-filename="/home/dave/code/germinationx/code/experimental/clojure/fungi/cooking/ghost-cover-happy.png"
       inkscape:export-xdpi="72"
       inkscape:export-ydpi="72" />
    <path
       style="fill:#00b600;fill-opacity:1;stroke:#000000;stroke-width:0.82051271;stroke-linecap:butt;stroke-linejoin:miter;stroke-miterlimit:4;stroke-opacity:1;stroke-dasharray:none"
       d="m 403.78327,723.54478 c 0.38942,-0.20844 1.42339,-0.98584 1.16828,-0.62526 -0.36077,0.50993 -0.96929,0.79721 -1.51054,1.10903 -0.27599,0.15896 -0.10028,-0.96382 -0.40348,-0.86618 -0.26485,0.0853 -1.11092,1.02003 -1.43023,0.58512 -0.0326,-0.0444 0.15126,-0.78115 0.12046,-0.78587 -0.88253,-0.13527 -2.53476,2.02449 -2.98093,1.95609 -0.0443,-0.007 0.20953,-0.98117 0.1606,-1.04782 -0.19159,-0.26094 -0.94267,0.39176 -1.12813,0.3633 -0.36003,-0.0552 -0.46138,-1.14315 -0.10135,-1.08797 0.0411,0.007 -1.37729,2.24047 -1.8528,1.59279 -0.26556,-0.36172 0.47722,-1.36426 0.46271,-1.26964 -0.14294,0.93257 -3.07037,-0.007 -3.78784,0.22375 -1.01861,0.32804 0.11133,-1.5916 0.2409,-1.57173 0.24374,0.0374 -1.92362,1.83304 -3.34424,0.82796 -0.21632,-0.15309 0.16062,-1.04783 0.12046,-0.78587 -0.0599,0.3905 -0.73372,-0.36605 -0.96752,-0.68452 -0.25217,-0.34347 -0.67176,0.43326 -0.86617,0.40348 -1.39548,-0.21389 1.86042,-1.83086 -0.22179,-0.3021 -0.40281,0.29574 -0.39328,-1.13273 -0.88722,-1.20843 -0.2623,-0.0402 -0.9597,1.22601 -1.20844,0.88721 -0.0629,-0.0858 0.25707,-1.30115 0.20076,-1.30979 -0.11591,-0.0178 -1.49236,0.99044 -1.39008,0.32316 0.0133,-0.0868 0.78851,-1.4878 1.02678,-1.45128 0.0162,0.003 -1.41881,0.60059 -1.65205,0.283 -0.33271,-0.45316 -1.11857,-0.57361 -1.45129,-1.02677 -0.13873,-0.18892 0.57445,-1.75075 0.0994,-2.39776 -0.25244,-0.34382 -0.5736,0.48531 -0.82603,0.1415 -0.18483,-0.25176 0.38559,-1.05803 0.20077,-1.30979 -0.11089,-0.15106 -0.67498,0.0306 -0.78588,-0.12045 -0.28886,-0.39345 0.62865,-0.72698 0.42257,-1.00767 -0.78454,-1.06857 -0.7202,0.91894 -1.79355,-0.54303 -0.17704,-0.24112 0.29605,-1.01388 0.20076,-1.30977 -0.0519,-0.16114 -0.69764,-0.6502 -0.40348,-0.86617 0.26055,-0.19128 1.17642,-0.21333 0.94648,-0.92737 -0.0869,-0.26986 -0.77753,-1.98641 -0.46466,-2.2161 0.14241,-0.10458 0.38149,0.18487 0.52391,0.0803 0.52386,-0.38462 -0.68337,-1.12562 -0.32316,-1.39009 0.30286,-0.22235 0.63599,0.36586 0.74573,0.3824 0.36002,0.0552 -0.15653,-0.72794 -0.10135,-1.08798 0.0298,-0.19431 0.95153,0.46379 1.00767,0.42257 0.20139,-0.14789 -0.0408,-0.89995 0.16061,-1.04782 0.41334,-0.30348 1.02675,0.69358 0.96752,0.68452 -0.26196,-0.0402 -0.0932,-0.62903 0.12045,-0.78587 0.2936,-0.21556 0.64767,0.36735 1.00768,0.42256 0.76211,0.11681 -0.0106,-1.3871 0.2409,-1.57174 0.41317,-0.30335 1.03908,0.86446 1.53159,0.50287 0.37685,-0.27669 1.22144,-1.15335 1.51055,-1.10903 0.36021,0.0552 0.58417,1.02115 1.00766,0.42256 0.0312,-0.0444 0.10124,-0.78881 0.12046,-0.78587 0.87319,0.13384 2.72793,2.02679 1.85475,1.89295 -0.36002,-0.0552 0.0625,-1.06286 0.42256,-1.00767 0.66111,0.10133 1.23317,1.26146 1.93505,1.36903 0.0104,0.001 2.49795,-0.3974 2.92167,0.17971 0.13626,0.18562 0.0795,0.63697 0.40348,0.86616 0.49435,0.34978 0.0821,-0.52362 0.60421,-0.4436 0.37046,0.0568 0.44361,0.60421 0.66542,0.90633 0.20925,0.28501 0.39576,-0.62551 0.64436,-0.70557 0.89847,-0.28935 0.99504,0.68873 1.49144,0.76482 0.51097,0.0783 0.31976,-1.37077 1.43024,-0.58513 2.71471,1.92066 4.19115,6.4415 5.2239,9.64835 0.34747,1.07894 -0.9906,3.97287 0.28495,5.13779"
       id="path3735-5-4"
       inkscape:transform-center-x="7.7217058"
       inkscape:transform-center-y="-3.856089"
       inkscape:export-filename="/home/dave/code/germinationx/code/experimental/clojure/fungi/cooking/ghost-cover-happy.png"
       inkscape:export-xdpi="72"
       inkscape:export-ydpi="72" />
    <path
       style="fill:#00b600;fill-opacity:1;stroke:#000000;stroke-width:0.82051271;stroke-linecap:butt;stroke-linejoin:miter;stroke-miterlimit:4;stroke-opacity:1;stroke-dasharray:none"
       d="m 403.93256,718.15338 c 0.3763,0.23128 1.5689,0.73242 1.1289,0.69384 -0.62226,-0.0546 -1.1771,-0.4353 -1.71923,-0.74559 -0.27643,-0.15822 0.78186,-0.57243 0.54472,-0.78506 -0.20716,-0.18574 -1.44094,-0.44532 -1.22626,-0.94031 0.0219,-0.0505 0.7509,-0.26311 0.73944,-0.2921 -0.32801,-0.83039 -3.02615,-1.16873 -3.19198,-1.58855 -0.0165,-0.0417 0.95303,-0.3136 0.98593,-0.38946 0.1288,-0.29699 -0.81349,-0.61671 -0.88242,-0.7912 -0.13381,-0.33876 0.75475,-0.9747 0.88857,-0.63594 0.0153,0.0387 -2.62926,-0.0602 -2.30956,-0.79735 0.17853,-0.41168 1.41881,-0.2755 1.32977,-0.24033 -0.87747,0.34661 -1.54133,-2.65547 -2.10254,-3.15867 -0.79675,-0.71439 1.43073,-0.70611 1.47889,-0.58418 0.0906,0.22934 -2.55276,-0.73742 -2.40077,-2.47097 0.0232,-0.26401 0.98593,-0.38946 0.73944,-0.29209 -0.36743,0.14513 -0.0537,-0.81821 0.10351,-1.18066 0.16954,-0.39092 -0.71279,-0.3618 -0.78505,-0.54472 -0.51867,-1.31306 2.51901,0.68392 0.14912,-0.34385 -0.45846,-0.19882 0.78007,-0.91061 0.59648,-1.37538 -0.0975,-0.2468 -1.54261,-0.21088 -1.37539,-0.59648 0.0423,-0.0977 1.25334,-0.43384 1.23241,-0.48682 -0.0431,-0.10907 -1.60764,-0.78967 -0.97978,-1.03768 0.0817,-0.0323 1.68243,-0.0689 1.77099,0.15526 0.006,0.0154 -1.23401,-0.92248 -1.07715,-1.28417 0.22368,-0.51576 -0.0684,-1.25522 0.15526,-1.77098 0.0933,-0.21503 1.80162,-0.38635 2.12099,-1.12276 0.1697,-0.39132 -0.70829,-0.25076 -0.53858,-0.64208 0.12426,-0.28654 1.10814,-0.20028 1.23241,-0.48682 0.0746,-0.17192 -0.36665,-0.56752 -0.29209,-0.73945 0.1942,-0.4478 0.94474,0.17651 1.08329,-0.14297 0.52744,-1.2162 -1.15667,-0.15881 -0.43506,-1.82275 0.11902,-0.27444 1.02489,-0.25537 1.23242,-0.48681 0.11301,-0.12605 0.2099,-0.93026 0.54471,-0.78506 0.29654,0.12861 0.77724,0.90852 1.27803,0.34999 0.18926,-0.21108 1.32369,-1.67278 1.67976,-1.51835 0.1621,0.0703 0.0326,0.42267 0.19473,0.49296 0.59624,0.25858 0.62772,-1.15758 1.03768,-0.97978 0.3447,0.14949 0.005,0.7337 0.0456,0.83681 0.13382,0.33876 0.54981,-0.50212 0.88857,-0.63594 0.18285,-0.0722 0.0791,1.05559 0.14297,1.0833 0.22923,0.0994 0.7567,-0.48887 0.98593,-0.38946 0.47045,0.20403 -0.0815,1.23638 -0.10351,1.18066 -0.0974,-0.24648 0.49631,-0.39754 0.73944,-0.2921 0.33417,0.14493 0.009,0.74454 0.14298,1.0833 0.28326,0.7171 1.19267,-0.70831 1.47889,-0.58418 0.47026,0.20394 -0.22285,1.33315 0.3377,1.57626 0.42893,0.18601 1.61178,0.47356 1.71924,0.74559 0.13388,0.33894 -0.58748,1.01926 0.14297,1.0833 0.0541,0.005 0.73231,-0.31018 0.73945,-0.29209 0.32455,0.8216 -0.37544,3.37765 -0.69999,2.55604 -0.13381,-0.33876 0.94948,-0.48174 1.0833,-0.14298 0.24572,0.62206 -0.4679,1.70091 -0.20702,2.36132 0.004,0.01 1.60234,1.9571 1.31748,2.61395 -0.0916,0.21124 -0.51006,0.38972 -0.54472,0.78505 -0.0529,0.60326 0.49364,-0.193 0.68769,0.29824 0.1377,0.34858 -0.29823,0.68769 -0.44735,1.03154 -0.14069,0.32439 0.73971,0.0265 0.93417,0.20087 0.70279,0.63013 -0.0933,1.20655 0.0912,1.67362 0.18992,0.48079 1.34507,-0.41478 1.22627,0.94033 -0.29044,3.31274 -3.45074,6.86667 -5.69983,9.37506 -0.7567,0.84394 -3.93057,1.147 -4.29372,2.83584"
       id="path3735-4"
       inkscape:export-filename="/home/dave/code/germinationx/code/experimental/clojure/fungi/cooking/ghost-cover-happy.png"
       inkscape:export-xdpi="72"
       inkscape:export-ydpi="72" />
    <path
       sodipodi:type="arc"
       style="fill:#000000;fill-opacity:1;stroke:#000101;stroke-width:1;stroke-linecap:round;stroke-linejoin:round;stroke-miterlimit:4;stroke-opacity:1;stroke-dasharray:none"
       id="path3770-6-6-5-3"
       sodipodi:cx="416.42856"
       sodipodi:cy="499.50504"
       sodipodi:rx="4.2857141"
       sodipodi:ry="4.2857141"
       d="m 420.71427,499.50504 a 4.2857141,4.2857141 0 1 1 -8.57143,0 4.2857141,4.2857141 0 1 1 8.57143,0 z"
       transform="matrix(0.29883265,0,0,0.29883265,121.8669,543.20301)"
       inkscape:export-filename="/home/dave/code/germinationx/code/experimental/clojure/fungi/textures/ghost-canopy-happy.png"
       inkscape:export-xdpi="72"
       inkscape:export-ydpi="72" />
    <path
       transform="matrix(0.29883265,0,0,0.29883265,129.97807,542.98955)"
       sodipodi:type="arc"
       style="fill:#000000;fill-opacity:1;stroke:#000101;stroke-width:1;stroke-linecap:round;stroke-linejoin:round;stroke-miterlimit:4;stroke-opacity:1;stroke-dasharray:none"
       id="path3770-0-1-3-4-0"
       sodipodi:cx="416.42856"
       sodipodi:cy="499.50504"
       sodipodi:rx="4.2857141"
       sodipodi:ry="4.2857141"
       d="m 420.71427,499.50504 a 4.2857141,4.2857141 0 1 1 -8.57143,0 4.2857141,4.2857141 0 1 1 8.57143,0 z"
       inkscape:export-filename="/home/dave/code/germinationx/code/experimental/clojure/fungi/textures/ghost-canopy-happy.png"
       inkscape:export-xdpi="72"
       inkscape:export-ydpi="72" />
    <path
       sodipodi:type="arc"
       style="fill:#000000;fill-opacity:1;stroke:#000101;stroke-width:1;stroke-linecap:round;stroke-linejoin:round;stroke-miterlimit:4;stroke-opacity:1;stroke-dasharray:none"
       id="path3770-6-6-6-7"
       sodipodi:cx="416.42856"
       sodipodi:cy="499.50504"
       sodipodi:rx="4.2857141"
       sodipodi:ry="4.2857141"
       d="m 420.71427,499.50504 a 4.2857141,4.2857141 0 1 1 -8.57143,0 4.2857141,4.2857141 0 1 1 8.57143,0 z"
       transform="matrix(0.29883265,0,0,0.29883265,199.73711,546.16434)"
       inkscape:export-filename="/home/dave/code/germinationx/code/experimental/clojure/fungi/textures/ghost-vertical-happy.png"
       inkscape:export-xdpi="72"
       inkscape:export-ydpi="72" />
    <path
       transform="matrix(0.29883265,0,0,0.29883265,207.84828,545.95089)"
       sodipodi:type="arc"
       style="fill:#000000;fill-opacity:1;stroke:#000101;stroke-width:1;stroke-linecap:round;stroke-linejoin:round;stroke-miterlimit:4;stroke-opacity:1;stroke-dasharray:none"
       id="path3770-0-1-3-5-8"
       sodipodi:cx="416.42856"
       sodipodi:cy="499.50504"
       sodipodi:rx="4.2857141"
       sodipodi:ry="4.2857141"
       d="m 420.71427,499.50504 a 4.2857141,4.2857141 0 1 1 -8.57143,0 4.2857141,4.2857141 0 1 1 8.57143,0 z"
       inkscape:export-filename="/home/dave/code/germinationx/code/experimental/clojure/fungi/textures/ghost-vertical-happy.png"
       inkscape:export-xdpi="72"
       inkscape:export-ydpi="72" />
    <path
       sodipodi:type="arc"
       style="fill:#000000;fill-opacity:1;stroke:#000101;stroke-width:1;stroke-linecap:round;stroke-linejoin:round;stroke-miterlimit:4;stroke-opacity:1;stroke-dasharray:none"
       id="path3770-6-6-9-6"
       sodipodi:cx="416.42856"
       sodipodi:cy="499.50504"
       sodipodi:rx="4.2857141"
       sodipodi:ry="4.2857141"
       d="m 420.71427,499.50504 a 4.2857141,4.2857141 0 1 1 -8.57143,0 4.2857141,4.2857141 0 1 1 8.57143,0 z"
       transform="matrix(0.29883265,0,0,0.29883265,277.44638,552.02649)"
       inkscape:export-filename="/home/dave/code/germinationx/code/experimental/clojure/fungi/cooking/ghost-cover-happy.png"
       inkscape:export-xdpi="72"
       inkscape:export-ydpi="72" />
    <path
       transform="matrix(0.29883265,0,0,0.29883265,285.55756,551.81304)"
       sodipodi:type="arc"
       style="fill:#000000;fill-opacity:1;stroke:#000101;stroke-width:1;stroke-linecap:round;stroke-linejoin:round;stroke-miterlimit:4;stroke-opacity:1;stroke-dasharray:none"
       id="path3770-0-1-3-3-8"
       sodipodi:cx="416.42856"
       sodipodi:cy="499.50504"
       sodipodi:rx="4.2857141"
       sodipodi:ry="4.2857141"
       d="m 420.71427,499.50504 a 4.2857141,4.2857141 0 1 1 -8.57143,0 4.2857141,4.2857141 0 1 1 8.57143,0 z"
       inkscape:export-filename="/home/dave/code/germinationx/code/experimental/clojure/fungi/cooking/ghost-cover-happy.png"
       inkscape:export-xdpi="72"
       inkscape:export-ydpi="72" />
    <rect
       style="fill:none;stroke:none;stroke-width:1;stroke-linecap:round;stroke-linejoin:round;stroke-miterlimit:4;stroke-opacity:1;stroke-dasharray:none"
       id="rect3973-8"
       width="80"
       height="130"
       x="210"
       y="602.36218"
       ry="0"
       inkscape:export-filename="/home/dave/code/germinationx/code/experimental/clojure/fungi/textures/ghost-canopy-happy.png"
       inkscape:export-xdpi="72"
       inkscape:export-ydpi="72" />
    <rect
       style="fill:none;stroke:none;stroke-width:1;stroke-linecap:round;stroke-linejoin:round;stroke-miterlimit:4;stroke-opacity:1;stroke-dasharray:none"
       id="rect3973-4-4"
       width="80"
       height="130"
       x="290.00003"
       y="602.36218"
       ry="0"
       inkscape:export-filename="/home/dave/code/germinationx/code/experimental/clojure/fungi/textures/ghost-vertical-happy.png"
       inkscape:export-xdpi="72"
       inkscape:export-ydpi="72" />
    <rect
       style="fill:none;stroke:none;stroke-width:1;stroke-linecap:round;stroke-linejoin:round;stroke-miterlimit:4;stroke-opacity:1;stroke-dasharray:none"
       id="rect3973-2-3"
       width="80"
       height="130"
       x="370.00003"
       y="602.36218"
       ry="0"
       inkscape:export-filename="/home/dave/code/germinationx/code/experimental/clojure/fungi/cooking/ghost-cover-happy.png"
       inkscape:export-xdpi="72"
       inkscape:export-ydpi="72" />
    <path
       style="fill:#00b600;fill-opacity:1;stroke:#000000;stroke-width:1.14871776;stroke-linecap:butt;stroke-linejoin:miter;stroke-miterlimit:4;stroke-opacity:1;stroke-dasharray:none"
       d="m 246.77352,861.44174 c 0,0.8841 -2.65229,0.22103 -2.65229,-0.66307 0,-4.58225 1.25291,-15.32395 -1.98923,-18.56608 -5.80411,-5.80411 -11.36718,-6.34667 -18.56608,-9.94612 -1.45978,-0.72989 -1.32615,-2.33274 -1.32615,-3.97844 0,-6.32839 22.30711,0.8513 17.90301,-7.95689 -2.04349,-4.087 -19.89223,-2.34496 -19.89223,-15.91379 0,-7.02995 15.64531,1.2 17.23993,-1.98922 1.4759,-2.95181 -15.44585,-16.38172 -10.60919,-21.21838 3.75186,-3.75187 12.16686,3.74692 15.25071,0.66307 3.8317,-3.8317 -5.65407,-12.24894 3.97845,-21.88146 4.09104,-4.09104 6.28297,15.59849 11.93534,9.94612 2.7378,-2.73781 11.23904,-15.26732 17.903,-11.93534 7.19536,3.59768 -8.11103,14.27935 -6.63074,17.23993 0.33299,0.666 23.09984,-2.54453 15.25071,5.3046 -2.66919,2.66919 -22.15504,10.99868 -17.23993,15.91378 3.84102,3.84103 16.11108,-4.91 18.56608,0 2.44904,4.89809 -11.06278,12.49368 -13.92456,13.92457 -0.89298,0.44648 -1.60444,1.88271 -1.98922,2.6523 -3.55347,7.10693 19.38488,-2.96377 15.25071,5.30459 -0.85167,1.70332 -1.27122,2.95637 -3.31538,3.97844 -5.35539,2.6777 -16.47473,9.56353 -21.21838,11.93535 -8.77189,4.38594 -7.28184,21.53494 -13.92456,27.18604 z"
       id="path3731-4"
       sodipodi:nodetypes="csssssssssssssssssssssc"
       inkscape:export-filename="/home/dave/code/germinationx/code/experimental/clojure/fungi/cooking/ghost-canopy-sad.png"
       inkscape:export-xdpi="72"
       inkscape:export-ydpi="72" />
    <path
       style="fill:#00b600;fill-opacity:1;stroke:#000000;stroke-width:1.14871776;stroke-linecap:butt;stroke-linejoin:miter;stroke-miterlimit:4;stroke-opacity:1;stroke-dasharray:none"
       d="m 313.84971,817.80909 c -1.43009,4.49713 2.52669,-6.87908 2.52669,-7.39384 0,-3.31507 2.71684,-7.05592 4.63225,-9.85846 0.72925,-1.067 1.30668,-2.59142 1.68445,-3.69692 0.42689,-1.24921 6.82016,-6.08124 7.58006,-5.34001 1.32765,1.29504 2.20617,3.22796 3.36892,4.92924 1.91116,2.7963 4.82361,5.30254 6.31671,8.21538 1.77031,3.45364 2.23261,7.64168 3.79003,10.67999 0.56895,1.10996 0.22742,3.91877 0.42111,4.1077 0.48551,0.47358 3.36892,-1.01051 3.36892,0.41077 0,0.0396 2.73715,-0.10274 3.79002,0.41077 2.44002,1.19004 17.26568,6.96657 17.26568,8.62615 0,0.21582 -1.62432,0.66506 -2.10556,0.82154 -1.26592,0.4116 -2.67325,1.73838 -3.79003,2.46461 -3.95727,2.57338 -7.7257,6.84872 -12.21231,9.03692 -0.61827,0.30154 -2.51632,0.40066 -2.9478,0.82154 -3.33348,3.25159 5.31201,12.0708 4.63225,12.73384 -0.38833,0.3788 -3.73761,-0.41076 -4.63225,-0.41076 -4.87837,0 -13.75341,0.69044 -16.00235,-3.69693 -0.53585,-1.04537 -6.5008,-8.21538 -4.63225,-8.21538 0.64742,0 -1.91174,6.60494 -2.10557,6.98308 -1.74399,3.40228 -18.52902,13.23531 -18.52902,10.68 0,-0.14837 4.47084,-3.38203 5.05336,-4.51846 0.81821,-1.59622 2.10558,-4.16914 2.10558,-6.16154 0,-0.47748 0.42111,-1.82389 0.42111,-1.64308 0,2.16145 -10.07656,-2.72865 -10.52785,-2.87539 -5.97228,-1.94185 -7.06174,-8.94209 -10.52786,-12.32307 -1.08495,-1.05829 -2.1881,-4.1882 -2.10556,-4.10769 0.98764,0.9634 14.00021,-5.34 16.42344,-5.34 1.0811,0 7.45601,-4.51846 6.31672,-4.51846"
       id="path3733-9"
       sodipodi:nodetypes="cssssssssssssssssssssssssssssc"
       inkscape:export-filename="/home/dave/code/germinationx/code/experimental/clojure/fungi/cooking/ghost-vertical-sad.png"
       inkscape:export-xdpi="72"
       inkscape:export-ydpi="72" />
    <path
       style="fill:#00b600;fill-opacity:1;stroke:#000000;stroke-width:0.82051271;stroke-linecap:butt;stroke-linejoin:miter;stroke-miterlimit:4;stroke-opacity:1;stroke-dasharray:none"
       d="m 404.00209,848.85207 c -0.0587,0.43778 -0.0328,1.73113 -0.17607,1.31332 -0.20264,-0.59086 -0.0798,-1.25247 -0.0162,-1.87387 0.0324,-0.31686 0.84045,0.48233 0.93857,0.17928 0.0857,-0.26471 -0.1777,-1.49767 0.36183,-1.50233 0.0551,-5e-4 0.54516,0.57953 0.56701,0.5573 0.62585,-0.63675 -0.15977,-3.24005 0.15664,-3.56198 0.0314,-0.032 0.67334,0.7438 0.75602,0.74308 0.32371,-0.003 0.23354,-0.99377 0.36507,-1.12756 0.25531,-0.25976 1.19718,0.29402 0.94179,0.55407 -0.0291,0.0297 -1.01189,-2.42749 -0.20842,-2.43442 0.4487,-0.004 0.82752,1.18495 0.75925,1.11786 -0.67285,-0.66135 1.80158,-2.48628 2.03376,-3.2034 0.32962,-1.0181 1.22592,1.02112 1.13402,1.11461 -0.17284,0.17587 -0.36188,-2.63237 1.28421,-3.1969 0.2507,-0.0859 0.75603,0.74307 0.56702,0.55731 -0.28175,-0.27694 0.72602,-0.3811 1.12109,-0.38448 0.42608,-0.004 0.0414,-0.79829 0.17928,-0.93856 0.98963,-1.00687 0.39708,2.57981 0.37477,-0.003 -0.005,-0.4997 1.14881,0.34344 1.4991,-0.0129 0.18601,-0.18925 -0.43321,-1.49548 -0.0129,-1.49911 0.10643,-6.5e-4 0.9051,0.96948 0.94504,0.92886 0.0822,-0.0836 0.0694,-1.78978 0.55083,-1.31657 0.0626,0.0615 0.74569,1.50971 0.57671,1.68164 -0.0116,0.0117 0.34237,-1.50217 0.7366,-1.50557 0.56216,-0.005 1.11947,-0.57187 1.68164,-0.57671 0.23437,-0.002 1.08418,1.48985 1.88682,1.48292 0.42652,-0.004 -0.0582,-0.74911 0.3683,-0.75279 0.31232,-0.003 0.63272,0.93154 0.94503,0.92885 0.18738,-0.002 0.36991,-0.56541 0.55731,-0.56703 0.48808,-0.004 0.22201,0.93511 0.57025,0.93209 1.3256,-0.0114 -0.32421,-1.12161 1.48939,-1.13727 0.29914,-0.003 0.64929,0.8331 0.94503,0.92885 0.16106,0.0522 0.9354,-0.18564 0.93857,0.17928 0.003,0.32321 -0.51498,1.07902 0.19871,1.3101 0.26972,0.0873 2.06601,0.53101 2.06935,0.91913 10e-4,0.17667 -0.37307,0.20133 -0.37155,0.37801 0.006,0.64987 1.31272,0.10399 1.31657,0.55083 0.003,0.37571 -0.66871,0.30192 -0.74631,0.38126 -0.25531,0.25977 0.68204,0.29875 0.94181,0.55407 0.1402,0.13781 -0.9327,0.50061 -0.93209,0.57025 0.002,0.24986 0.75386,0.49323 0.75602,0.74308 0.005,0.51276 -1.16308,0.42722 -1.12109,0.38447 0.18576,-0.189 0.56473,0.2923 0.56701,0.55731 0.003,0.36422 -0.67675,0.31051 -0.93208,0.57025 -0.54046,0.54988 1.13133,0.80264 1.13404,1.11461 0.005,0.51256 -1.3089,0.33731 -1.30363,0.94827 0.004,0.4675 0.22121,1.66528 0.0161,1.87388 -0.25545,0.2599 -1.16995,-0.12334 -0.93208,0.57025 0.0179,0.0513 0.58065,0.54344 0.56701,0.55731 -0.61922,0.63003 -3.2394,1.02747 -2.62018,0.39743 0.25531,-0.25976 0.82557,0.67232 0.57025,0.93208 -0.46882,0.47701 -1.74443,0.26256 -2.24217,0.76897 -0.007,0.008 -1.13852,2.25865 -1.85446,2.26484 -0.23024,0.002 -0.56316,-0.30805 -0.93856,-0.17927 -0.57282,0.19642 0.37672,0.37285 0.007,0.74953 -0.26272,0.2673 -0.74956,0.007 -1.12433,0.01 -0.35357,0.003 0.27594,0.68683 0.19549,0.93531 -0.29074,0.89803 -1.14061,0.40434 -1.49263,0.7625 -0.36236,0.36867 0.9249,1.06104 -0.36182,1.50235 -3.14561,1.07879 -7.67618,-0.36751 -10.88142,-1.40525 -1.07839,-0.34914 -2.64328,-3.12699 -4.33418,-2.77359"
       id="path3735-8-2"
       inkscape:transform-center-x="12.922908"
       inkscape:transform-center-y="-2.8088183"
       inkscape:export-filename="/home/dave/code/germinationx/code/experimental/clojure/fungi/cooking/ghost-cover-sad.png"
       inkscape:export-xdpi="72"
       inkscape:export-ydpi="72" />
    <path
       style="fill:#00b600;fill-opacity:1;stroke:#000000;stroke-width:0.82051271;stroke-linecap:butt;stroke-linejoin:miter;stroke-miterlimit:4;stroke-opacity:1;stroke-dasharray:none"
       d="m 403.78327,853.54479 c 0.38942,-0.20844 1.42339,-0.98584 1.16828,-0.62526 -0.36077,0.50993 -0.96929,0.79721 -1.51054,1.10903 -0.27599,0.15896 -0.10028,-0.96382 -0.40348,-0.86618 -0.26485,0.0853 -1.11092,1.02003 -1.43023,0.58512 -0.0326,-0.0444 0.15126,-0.78115 0.12046,-0.78587 -0.88253,-0.13527 -2.53476,2.02449 -2.98093,1.95609 -0.0443,-0.007 0.20953,-0.98117 0.1606,-1.04782 -0.19159,-0.26094 -0.94267,0.39176 -1.12813,0.3633 -0.36003,-0.0552 -0.46138,-1.14315 -0.10135,-1.08797 0.0411,0.007 -1.37729,2.24047 -1.8528,1.59279 -0.26556,-0.36172 0.47722,-1.36426 0.46271,-1.26964 -0.14294,0.93257 -3.07037,-0.007 -3.78784,0.22375 -1.01861,0.32804 0.11133,-1.5916 0.2409,-1.57173 0.24374,0.0374 -1.92362,1.83304 -3.34424,0.82796 -0.21632,-0.15309 0.16062,-1.04783 0.12046,-0.78587 -0.0599,0.3905 -0.73372,-0.36605 -0.96752,-0.68452 -0.25217,-0.34347 -0.67176,0.43326 -0.86617,0.40348 -1.39548,-0.21389 1.86042,-1.83086 -0.22179,-0.3021 -0.40281,0.29574 -0.39328,-1.13273 -0.88722,-1.20843 -0.2623,-0.0402 -0.9597,1.22601 -1.20844,0.88721 -0.0629,-0.0858 0.25707,-1.30115 0.20076,-1.30979 -0.11591,-0.0178 -1.49236,0.99044 -1.39008,0.32316 0.0133,-0.0868 0.78851,-1.4878 1.02678,-1.45128 0.0162,0.003 -1.41881,0.60059 -1.65205,0.283 -0.33271,-0.45316 -1.11857,-0.57361 -1.45129,-1.02677 -0.13873,-0.18892 0.57445,-1.75075 0.0994,-2.39776 -0.25244,-0.34382 -0.5736,0.48531 -0.82603,0.1415 -0.18483,-0.25176 0.38559,-1.05803 0.20077,-1.30979 -0.11089,-0.15106 -0.67498,0.0306 -0.78588,-0.12045 -0.28886,-0.39345 0.62865,-0.72698 0.42257,-1.00767 -0.78454,-1.06857 -0.7202,0.91894 -1.79355,-0.54303 -0.17704,-0.24112 0.29605,-1.01388 0.20076,-1.30977 -0.0519,-0.16114 -0.69764,-0.6502 -0.40348,-0.86617 0.26055,-0.19128 1.17642,-0.21333 0.94648,-0.92737 -0.0869,-0.26986 -0.77753,-1.98641 -0.46466,-2.2161 0.14241,-0.10458 0.38149,0.18487 0.52391,0.0803 0.52386,-0.38462 -0.68337,-1.12562 -0.32316,-1.39009 0.30286,-0.22235 0.63599,0.36586 0.74573,0.3824 0.36002,0.0552 -0.15653,-0.72794 -0.10135,-1.08798 0.0298,-0.19431 0.95153,0.46379 1.00767,0.42257 0.20139,-0.14789 -0.0408,-0.89995 0.16061,-1.04782 0.41334,-0.30348 1.02675,0.69358 0.96752,0.68452 -0.26196,-0.0402 -0.0932,-0.62903 0.12045,-0.78587 0.2936,-0.21556 0.64767,0.36735 1.00768,0.42256 0.76211,0.11681 -0.0106,-1.3871 0.2409,-1.57174 0.41317,-0.30335 1.03908,0.86446 1.53159,0.50287 0.37685,-0.27669 1.22144,-1.15335 1.51055,-1.10903 0.36021,0.0552 0.58417,1.02115 1.00766,0.42256 0.0312,-0.0444 0.10124,-0.78881 0.12046,-0.78587 0.87319,0.13384 2.72793,2.02679 1.85475,1.89295 -0.36002,-0.0552 0.0625,-1.06286 0.42256,-1.00767 0.66111,0.10133 1.23317,1.26146 1.93505,1.36903 0.0104,10e-4 2.49795,-0.3974 2.92167,0.17971 0.13626,0.18562 0.0795,0.63697 0.40348,0.86616 0.49435,0.34978 0.0821,-0.52362 0.60421,-0.4436 0.37046,0.0568 0.44361,0.60421 0.66542,0.90633 0.20925,0.28501 0.39576,-0.62551 0.64436,-0.70557 0.89847,-0.28935 0.99504,0.68873 1.49144,0.76482 0.51097,0.0783 0.31976,-1.37077 1.43024,-0.58513 2.71471,1.92066 4.19115,6.4415 5.2239,9.64835 0.34747,1.07894 -0.9906,3.97287 0.28495,5.13779"
       id="path3735-5-0"
       inkscape:transform-center-x="7.7217058"
       inkscape:transform-center-y="-3.856089"
       inkscape:export-filename="/home/dave/code/germinationx/code/experimental/clojure/fungi/cooking/ghost-cover-sad.png"
       inkscape:export-xdpi="72"
       inkscape:export-ydpi="72" />
    <path
       style="fill:#00b600;fill-opacity:1;stroke:#000000;stroke-width:0.82051271;stroke-linecap:butt;stroke-linejoin:miter;stroke-miterlimit:4;stroke-opacity:1;stroke-dasharray:none"
       d="m 403.93256,848.15339 c 0.3763,0.23128 1.5689,0.73242 1.1289,0.69384 -0.62226,-0.0546 -1.1771,-0.4353 -1.71923,-0.74559 -0.27643,-0.15822 0.78186,-0.57243 0.54472,-0.78506 -0.20716,-0.18574 -1.44094,-0.44532 -1.22626,-0.94031 0.0219,-0.0505 0.7509,-0.26311 0.73944,-0.2921 -0.32801,-0.83039 -3.02615,-1.16873 -3.19198,-1.58855 -0.0165,-0.0417 0.95303,-0.3136 0.98593,-0.38946 0.1288,-0.29699 -0.81349,-0.61671 -0.88242,-0.7912 -0.13381,-0.33876 0.75475,-0.9747 0.88857,-0.63594 0.0153,0.0387 -2.62926,-0.0602 -2.30956,-0.79735 0.17853,-0.41168 1.41881,-0.2755 1.32977,-0.24033 -0.87747,0.34661 -1.54133,-2.65547 -2.10254,-3.15867 -0.79675,-0.71439 1.43073,-0.70611 1.47889,-0.58418 0.0906,0.22934 -2.55276,-0.73742 -2.40077,-2.47097 0.0232,-0.26401 0.98593,-0.38946 0.73944,-0.29209 -0.36743,0.14513 -0.0537,-0.81821 0.10351,-1.18066 0.16954,-0.39092 -0.71279,-0.3618 -0.78505,-0.54472 -0.51867,-1.31306 2.51901,0.68392 0.14912,-0.34385 -0.45846,-0.19882 0.78007,-0.91061 0.59648,-1.37538 -0.0975,-0.2468 -1.54261,-0.21088 -1.37539,-0.59648 0.0423,-0.0977 1.25334,-0.43384 1.23241,-0.48682 -0.0431,-0.10907 -1.60764,-0.78967 -0.97978,-1.03768 0.0817,-0.0323 1.68243,-0.0689 1.77099,0.15526 0.006,0.0154 -1.23401,-0.92248 -1.07715,-1.28417 0.22368,-0.51576 -0.0684,-1.25522 0.15526,-1.77098 0.0933,-0.21503 1.80162,-0.38635 2.12099,-1.12276 0.1697,-0.39132 -0.70829,-0.25076 -0.53858,-0.64208 0.12426,-0.28654 1.10814,-0.20028 1.23241,-0.48682 0.0746,-0.17192 -0.36665,-0.56752 -0.29209,-0.73945 0.1942,-0.4478 0.94474,0.17651 1.08329,-0.14297 0.52744,-1.2162 -1.15667,-0.15881 -0.43506,-1.82275 0.11902,-0.27444 1.02489,-0.25537 1.23242,-0.48681 0.11301,-0.12605 0.2099,-0.93026 0.54471,-0.78506 0.29654,0.12861 0.77724,0.90852 1.27803,0.34999 0.18926,-0.21108 1.32369,-1.67278 1.67976,-1.51835 0.1621,0.0703 0.0326,0.42267 0.19473,0.49296 0.59624,0.25858 0.62772,-1.15758 1.03768,-0.97978 0.3447,0.14949 0.005,0.7337 0.0456,0.83681 0.13382,0.33876 0.54981,-0.50212 0.88857,-0.63594 0.18285,-0.0722 0.0791,1.05559 0.14297,1.0833 0.22923,0.0994 0.7567,-0.48887 0.98593,-0.38946 0.47045,0.20403 -0.0815,1.23638 -0.10351,1.18066 -0.0974,-0.24648 0.49631,-0.39754 0.73944,-0.2921 0.33417,0.14493 0.009,0.74454 0.14298,1.0833 0.28326,0.7171 1.19267,-0.70831 1.47889,-0.58418 0.47026,0.20394 -0.22285,1.33315 0.3377,1.57626 0.42893,0.18601 1.61178,0.47356 1.71924,0.74559 0.13388,0.33894 -0.58748,1.01926 0.14297,1.0833 0.0541,0.005 0.73231,-0.31018 0.73945,-0.29209 0.32455,0.8216 -0.37544,3.37765 -0.69999,2.55604 -0.13381,-0.33876 0.94948,-0.48174 1.0833,-0.14298 0.24572,0.62206 -0.4679,1.70091 -0.20702,2.36132 0.004,0.01 1.60234,1.9571 1.31748,2.61395 -0.0916,0.21124 -0.51006,0.38972 -0.54472,0.78505 -0.0529,0.60326 0.49364,-0.193 0.68769,0.29824 0.1377,0.34858 -0.29823,0.68769 -0.44735,1.03154 -0.14069,0.32439 0.73971,0.0265 0.93417,0.20087 0.70279,0.63013 -0.0933,1.20655 0.0912,1.67362 0.18992,0.48079 1.34507,-0.41478 1.22627,0.94033 -0.29044,3.31274 -3.45074,6.86667 -5.69983,9.37506 -0.7567,0.84394 -3.93057,1.147 -4.29372,2.83584"
       id="path3735-6"
       inkscape:export-filename="/home/dave/code/germinationx/code/experimental/clojure/fungi/cooking/ghost-cover-sad.png"
       inkscape:export-xdpi="72"
       inkscape:export-ydpi="72" />
    <path
       sodipodi:type="arc"
       style="fill:#000000;fill-opacity:1;stroke:#000101;stroke-width:1;stroke-linecap:round;stroke-linejoin:round;stroke-miterlimit:4;stroke-opacity:1;stroke-dasharray:none"
       id="path3770-6-6-5-8"
       sodipodi:cx="416.42856"
       sodipodi:cy="499.50504"
       sodipodi:rx="4.2857141"
       sodipodi:ry="4.2857141"
       d="m 420.71427,499.50504 a 4.2857141,4.2857141 0 1 1 -8.57143,0 4.2857141,4.2857141 0 1 1 8.57143,0 z"
       transform="matrix(0.29883265,0,0,0.29883265,121.8669,673.20302)"
       inkscape:export-filename="/home/dave/code/germinationx/code/experimental/clojure/fungi/cooking/ghost-canopy-sad.png"
       inkscape:export-xdpi="72"
       inkscape:export-ydpi="72" />
    <path
       transform="matrix(0.29883265,0,0,0.29883265,129.97807,672.98956)"
       sodipodi:type="arc"
       style="fill:#000000;fill-opacity:1;stroke:#000101;stroke-width:1;stroke-linecap:round;stroke-linejoin:round;stroke-miterlimit:4;stroke-opacity:1;stroke-dasharray:none"
       id="path3770-0-1-3-4-9"
       sodipodi:cx="416.42856"
       sodipodi:cy="499.50504"
       sodipodi:rx="4.2857141"
       sodipodi:ry="4.2857141"
       d="m 420.71427,499.50504 a 4.2857141,4.2857141 0 1 1 -8.57143,0 4.2857141,4.2857141 0 1 1 8.57143,0 z"
       inkscape:export-filename="/home/dave/code/germinationx/code/experimental/clojure/fungi/cooking/ghost-canopy-sad.png"
       inkscape:export-xdpi="72"
       inkscape:export-ydpi="72" />
    <path
       sodipodi:type="arc"
       style="fill:#000000;fill-opacity:1;stroke:#000101;stroke-width:1;stroke-linecap:round;stroke-linejoin:round;stroke-miterlimit:4;stroke-opacity:1;stroke-dasharray:none"
       id="path3770-6-6-6-2"
       sodipodi:cx="416.42856"
       sodipodi:cy="499.50504"
       sodipodi:rx="4.2857141"
       sodipodi:ry="4.2857141"
       d="m 420.71427,499.50504 a 4.2857141,4.2857141 0 1 1 -8.57143,0 4.2857141,4.2857141 0 1 1 8.57143,0 z"
       transform="matrix(0.29883265,0,0,0.29883265,199.73711,676.16435)"
       inkscape:export-filename="/home/dave/code/germinationx/code/experimental/clojure/fungi/cooking/ghost-vertical-sad.png"
       inkscape:export-xdpi="72"
       inkscape:export-ydpi="72" />
    <path
       transform="matrix(0.29883265,0,0,0.29883265,207.84828,675.9509)"
       sodipodi:type="arc"
       style="fill:#000000;fill-opacity:1;stroke:#000101;stroke-width:1;stroke-linecap:round;stroke-linejoin:round;stroke-miterlimit:4;stroke-opacity:1;stroke-dasharray:none"
       id="path3770-0-1-3-5-6"
       sodipodi:cx="416.42856"
       sodipodi:cy="499.50504"
       sodipodi:rx="4.2857141"
       sodipodi:ry="4.2857141"
       d="m 420.71427,499.50504 a 4.2857141,4.2857141 0 1 1 -8.57143,0 4.2857141,4.2857141 0 1 1 8.57143,0 z"
       inkscape:export-filename="/home/dave/code/germinationx/code/experimental/clojure/fungi/cooking/ghost-vertical-sad.png"
       inkscape:export-xdpi="72"
       inkscape:export-ydpi="72" />
    <path
       sodipodi:type="arc"
       style="fill:#000000;fill-opacity:1;stroke:#000101;stroke-width:1;stroke-linecap:round;stroke-linejoin:round;stroke-miterlimit:4;stroke-opacity:1;stroke-dasharray:none"
       id="path3770-6-6-9-64"
       sodipodi:cx="416.42856"
       sodipodi:cy="499.50504"
       sodipodi:rx="4.2857141"
       sodipodi:ry="4.2857141"
       d="m 420.71427,499.50504 a 4.2857141,4.2857141 0 1 1 -8.57143,0 4.2857141,4.2857141 0 1 1 8.57143,0 z"
       transform="matrix(0.29883265,0,0,0.29883265,277.44638,682.0265)"
       inkscape:export-filename="/home/dave/code/germinationx/code/experimental/clojure/fungi/cooking/ghost-cover-sad.png"
       inkscape:export-xdpi="72"
       inkscape:export-ydpi="72" />
    <path
       transform="matrix(0.29883265,0,0,0.29883265,285.55756,681.81305)"
       sodipodi:type="arc"
       style="fill:#000000;fill-opacity:1;stroke:#000101;stroke-width:1;stroke-linecap:round;stroke-linejoin:round;stroke-miterlimit:4;stroke-opacity:1;stroke-dasharray:none"
       id="path3770-0-1-3-3-9"
       sodipodi:cx="416.42856"
       sodipodi:cy="499.50504"
       sodipodi:rx="4.2857141"
       sodipodi:ry="4.2857141"
       d="m 420.71427,499.50504 a 4.2857141,4.2857141 0 1 1 -8.57143,0 4.2857141,4.2857141 0 1 1 8.57143,0 z"
       inkscape:export-filename="/home/dave/code/germinationx/code/experimental/clojure/fungi/cooking/ghost-cover-sad.png"
       inkscape:export-xdpi="72"
       inkscape:export-ydpi="72" />
    <rect
       style="fill:none;stroke:none;stroke-width:1;stroke-linecap:round;stroke-linejoin:round;stroke-miterlimit:4;stroke-opacity:1;stroke-dasharray:none"
       id="rect3973-5"
       width="80"
       height="130"
       x="210"
       y="732.36218"
       ry="0"
       inkscape:export-filename="/home/dave/code/germinationx/code/experimental/clojure/fungi/cooking/ghost-canopy-sad.png"
       inkscape:export-xdpi="72"
       inkscape:export-ydpi="72" />
    <rect
       style="fill:none;stroke:none;stroke-width:1;stroke-linecap:round;stroke-linejoin:round;stroke-miterlimit:4;stroke-opacity:1;stroke-dasharray:none"
       id="rect3973-4-0"
       width="80"
       height="130"
       x="290"
       y="732.36218"
       ry="0"
       inkscape:export-filename="/home/dave/code/germinationx/code/experimental/clojure/fungi/cooking/ghost-vertical-sad.png"
       inkscape:export-xdpi="72"
       inkscape:export-ydpi="72" />
    <rect
       style="fill:none;stroke:none;stroke-width:1;stroke-linecap:round;stroke-linejoin:round;stroke-miterlimit:4;stroke-opacity:1;stroke-dasharray:none"
       id="rect3973-2-4"
       width="80"
       height="130"
       x="370"
       y="732.36218"
       ry="0"
       inkscape:export-filename="/home/dave/code/germinationx/code/experimental/clojure/fungi/cooking/ghost-cover-sad.png"
       inkscape:export-xdpi="72"
       inkscape:export-ydpi="72" />
    <path
       sodipodi:type="arc"
       style="fill:#000000;fill-opacity:1;stroke:#000101;stroke-width:1;stroke-linecap:round;stroke-linejoin:round;stroke-miterlimit:4;stroke-opacity:1;stroke-dasharray:none"
       id="path3768-2-8"
       sodipodi:cx="432.14285"
       sodipodi:cy="520.2193"
       sodipodi:rx="15.714286"
       sodipodi:ry="15.714286"
       d="m 447.85714,520.2193 a 15.714286,15.714286 0 0 1 -31.4204,0.50665 l 15.70611,-0.50665 z"
       sodipodi:start="0"
       sodipodi:end="3.1093458"
       transform="matrix(0.47653443,0,0,0.47653443,43.352815,450.71558)"
       inkscape:export-filename="/home/dave/code/germinationx/code/experimental/clojure/fungi/textures/ghost-canopy-happy.png"
       inkscape:export-xdpi="72"
       inkscape:export-ydpi="72" />
    <path
       sodipodi:type="arc"
       style="fill:#000000;fill-opacity:1;stroke:#000101;stroke-width:1;stroke-linecap:round;stroke-linejoin:round;stroke-miterlimit:4;stroke-opacity:1;stroke-dasharray:none"
       id="path3768-2-1"
       sodipodi:cx="432.14285"
       sodipodi:cy="520.2193"
       sodipodi:rx="15.714286"
       sodipodi:ry="15.714286"
       d="m 447.85714,520.2193 a 15.714286,15.714286 0 0 1 -31.4204,0.50665 l 15.70611,-0.50665 z"
       sodipodi:start="0"
       sodipodi:end="3.1093458"
       transform="matrix(0.47653443,0,0,0.47653443,122.63853,454.28701)"
       inkscape:export-filename="/home/dave/code/germinationx/code/experimental/clojure/fungi/textures/ghost-vertical-happy.png"
       inkscape:export-xdpi="72"
       inkscape:export-ydpi="72" />
    <path
       sodipodi:type="arc"
       style="fill:#000000;fill-opacity:1;stroke:#000101;stroke-width:1;stroke-linecap:round;stroke-linejoin:round;stroke-miterlimit:4;stroke-opacity:1;stroke-dasharray:none"
       id="path3768-2-7"
       sodipodi:cx="432.14285"
       sodipodi:cy="520.2193"
       sodipodi:rx="15.714286"
       sodipodi:ry="15.714286"
       d="m 447.85714,520.2193 a 15.714286,15.714286 0 0 1 -31.4204,0.50665 l 15.70611,-0.50665 z"
       sodipodi:start="0"
       sodipodi:end="3.1093458"
       transform="matrix(0.36969682,0,0,0.36969682,247.07623,514.09828)"
       inkscape:export-filename="/home/dave/code/germinationx/code/experimental/clojure/fungi/cooking/ghost-cover-happy.png"
       inkscape:export-xdpi="72"
       inkscape:export-ydpi="72" />
    <path
       sodipodi:type="arc"
       style="fill:#000000;fill-opacity:1;stroke:#000101;stroke-width:1;stroke-linecap:round;stroke-linejoin:round;stroke-miterlimit:4;stroke-opacity:1;stroke-dasharray:none"
       id="path3768-3-0-2"
       sodipodi:cx="432.14285"
       sodipodi:cy="520.2193"
       sodipodi:rx="15.714286"
       sodipodi:ry="15.714286"
       d="m 447.85714,520.2193 a 15.714286,15.714286 0 0 1 -31.4204,0.50665 l 15.70611,-0.50665 z"
       sodipodi:start="0"
       sodipodi:end="3.1093458"
       transform="matrix(-0.45516887,-0.0087488,0.0087488,-0.45516887,442.14632,1075.0789)"
       inkscape:export-filename="/home/dave/code/germinationx/code/experimental/clojure/fungi/cooking/ghost-canopy-sad.png"
       inkscape:export-xdpi="72"
       inkscape:export-ydpi="72" />
    <path
       sodipodi:type="arc"
       style="fill:#000000;fill-opacity:1;stroke:#000101;stroke-width:1;stroke-linecap:round;stroke-linejoin:round;stroke-miterlimit:4;stroke-opacity:1;stroke-dasharray:none"
       id="path3768-3-0-6"
       sodipodi:cx="432.14285"
       sodipodi:cy="520.2193"
       sodipodi:rx="15.714286"
       sodipodi:ry="15.714286"
       d="m 447.85714,520.2193 a 15.714286,15.714286 0 0 1 -31.4204,0.50665 l 15.70611,-0.50665 z"
       sodipodi:start="0"
       sodipodi:end="3.1093458"
       transform="matrix(-0.45516887,-0.0087488,0.0087488,-0.45516887,520.00346,1077.2218)"
       inkscape:export-filename="/home/dave/code/germinationx/code/experimental/clojure/fungi/cooking/ghost-vertical-sad.png"
       inkscape:export-xdpi="72"
       inkscape:export-ydpi="72" />
    <path
       sodipodi:type="arc"
       style="fill:#000000;fill-opacity:1;stroke:#000101;stroke-width:1;stroke-linecap:round;stroke-linejoin:round;stroke-miterlimit:4;stroke-opacity:1;stroke-dasharray:none"
       id="path3768-3-0-0"
       sodipodi:cx="432.14285"
       sodipodi:cy="520.2193"
       sodipodi:rx="15.714286"
       sodipodi:ry="15.714286"
       d="m 447.85714,520.2193 a 15.714286,15.714286 0 0 1 -31.4204,0.50665 l 15.70611,-0.50665 z"
       sodipodi:start="0"
       sodipodi:end="3.1093458"
       transform="matrix(-0.34835137,-0.00669566,0.00669566,-0.34835137,553.429,1024.748)"
       inkscape:export-filename="/home/dave/code/germinationx/code/experimental/clojure/fungi/cooking/ghost-cover-sad.png"
       inkscape:export-xdpi="72"
       inkscape:export-ydpi="72" />
    <path
       sodipodi:type="arc"
       style="fill:#80bb80;stroke:#000101;stroke-width:1;stroke-linecap:round;stroke-linejoin:round;stroke-miterlimit:4;stroke-opacity:1;stroke-dasharray:none;fill-opacity:1"
       id="path4182"
       sodipodi:cx="123.23861"
       sodipodi:cy="624.0575"
       sodipodi:rx="15.152288"
       sodipodi:ry="15.152288"
       d="m 138.3909,624.0575 a 15.152288,15.152288 0 1 1 -30.30458,0 15.152288,15.152288 0 1 1 30.30458,0 z"
       inkscape:export-filename="/home/dave/code/germinationx/code/experimental/clojure/fungi/cooking/player.png"
       inkscape:export-xdpi="72"
       inkscape:export-ydpi="72" />
    <rect
       style="fill:#80bb80;stroke:#000101;stroke-width:1;stroke-linecap:round;stroke-linejoin:round;stroke-miterlimit:4;stroke-opacity:1;stroke-dasharray:none;fill-opacity:1"
       id="rect4190"
       width="43.436558"
       height="72.73098"
       x="102.02541"
       y="640.21991"
       ry="21.213203"
       inkscape:export-filename="/home/dave/code/germinationx/code/experimental/clojure/fungi/cooking/player.png"
       inkscape:export-xdpi="72"
       inkscape:export-ydpi="72" />
    <path
       sodipodi:type="arc"
       style="fill:#000000;fill-opacity:1;stroke:#000101;stroke-width:1;stroke-linecap:round;stroke-linejoin:round;stroke-miterlimit:4;stroke-opacity:1;stroke-dasharray:none"
       id="path3770-6-6-5-8-9"
       sodipodi:cx="416.42856"
       sodipodi:cy="499.50504"
       sodipodi:rx="4.2857141"
       sodipodi:ry="4.2857141"
       d="m 420.71427,499.50504 a 4.2857141,4.2857141 0 1 1 -8.57143,0 4.2857141,4.2857141 0 1 1 8.57143,0 z"
       transform="matrix(0.29883265,0,0,0.29883265,-5.9046428,474.60882)"
       inkscape:export-filename="/home/dave/code/germinationx/code/experimental/clojure/fungi/cooking/player.png"
       inkscape:export-xdpi="72"
       inkscape:export-ydpi="72" />
    <path
       transform="matrix(0.29883265,0,0,0.29883265,2.2065272,474.39536)"
       sodipodi:type="arc"
       style="fill:#000000;fill-opacity:1;stroke:#000101;stroke-width:1;stroke-linecap:round;stroke-linejoin:round;stroke-miterlimit:4;stroke-opacity:1;stroke-dasharray:none"
       id="path3770-0-1-3-4-9-4"
       sodipodi:cx="416.42856"
       sodipodi:cy="499.50504"
       sodipodi:rx="4.2857141"
       sodipodi:ry="4.2857141"
       d="m 420.71427,499.50504 a 4.2857141,4.2857141 0 1 1 -8.57143,0 4.2857141,4.2857141 0 1 1 8.57143,0 z"
       inkscape:export-filename="/home/dave/code/germinationx/code/experimental/clojure/fungi/cooking/player.png"
       inkscape:export-xdpi="72"
       inkscape:export-ydpi="72" />
    <rect
       style="fill:none;stroke:none"
       id="rect3973-5-9"
       width="80"
       height="130"
       x="83.238609"
       y="584.27563"
       ry="0"
       inkscape:export-filename="/home/dave/code/germinationx/code/experimental/clojure/fungi/cooking/player.png"
       inkscape:export-xdpi="72"
       inkscape:export-ydpi="72" />
  </g>
  <g
     inkscape:groupmode="layer"
     id="layer2"
     inkscape:label="Layer" />
</svg>
